<svg xmlns="http://www.w3.org/2000/svg" viewBox="0 0 231.78 337.53"><defs><style>.cls-1{isolation:isolate;}.cls-2{fill:#99695c;}.cls-3{fill:#ffc3a4;}.cls-4{fill:#e69677;}.cls-5{fill:#91ed56;}.cls-6{fill:#7e4d3d;}.cls-7{fill:#714033;}.cls-15,.cls-21,.cls-23,.cls-24,.cls-31,.cls-33,.cls-42,.cls-8{fill:none;}.cls-31,.cls-8{stroke:#e2906d;}.cls-31,.cls-33,.cls-8{stroke-linecap:round;stroke-linejoin:round;}.cls-8{stroke-width:0.5px;}.cls-9{fill:#382f2c;}.cls-10{fill:#fff;}.cls-11{fill:#f8b593;}.cls-12{fill:#ef927f;}.cls-13,.cls-15{opacity:0.1;mix-blend-mode:multiply;}.cls-14{fill:#2c3559;}.cls-15,.cls-42{stroke:#2c3559;}.cls-15,.cls-21,.cls-23,.cls-24,.cls-42{stroke-miterlimit:10;}.cls-16{fill:#edbb94;}.cls-17{fill:#47180b;}.cls-18{fill:#5e3329;}.cls-19{fill:#3f1208;}.cls-20{fill:#404148;}.cls-21{stroke:#3d3d3d;}.cls-22{fill:#f9e0d9;}.cls-23,.cls-24{stroke:#32353f;}.cls-24{stroke-dasharray:6.17 4.11;}.cls-25{fill:#eaa07f;}.cls-26{fill:#e2e2f2;}.cls-27{fill:#4e4f56;}.cls-28{fill:#393a42;}.cls-29{fill:#f4af90;}.cls-30{fill:#f79d79;}.cls-31{stroke-width:0.65px;}.cls-32{fill:#3d2300;}.cls-33{stroke:#7e4d3d;}.cls-34{fill:#323544;}.cls-35{fill:#895649;}.cls-36{fill:#db8d6e;}.cls-37{fill:#dd8b6b;}.cls-38{fill:#d3b9a5;}.cls-39{opacity:0.3;}.cls-40{fill:#272425;}.cls-41{fill:#dda68a;}.cls-43{fill:#bc9982;}</style></defs><title>family</title><g class="cls-1"><g id="OBJECTS"><path class="cls-2" d="M27.21,179.27s12.48-22.83,14.9-24.12l.6,2.6s-9.53,13.83-13.37,22.74"/><path class="cls-3" d="M53.47,86.8a12.94,12.94,0,0,0,9.12.85,1.51,1.51,0,0,0,1.1-1.4l.08-2.33L64,78l-9.43.33-1.22-.17,0,.42-.37,2.79-.47,3.53A1.8,1.8,0,0,0,53.47,86.8Z"/><path class="cls-3" d="M17.16,166.36c-1.07,1.77-2.27,3.09-2.68,5.12-.3,1.46-.41,3-.74,4.41a1.07,1.07,0,0,1-.27.59c-.35.3-.93,0-1.16-.37a6.09,6.09,0,0,1-.35-1.35c-.12-.45-.44-.92-.9-.93a1.4,1.4,0,0,0-.65.22,9.33,9.33,0,0,0-4,5.39c-.25.84-.77,2.49-2,1.9a1.9,1.9,0,0,1-.33-.22l-.33-.25c-1.32-1-1.78-3.7-1.83-5.17-.07-2.08,1-4.28,1.87-6.16a12.37,12.37,0,0,1,2.55-3.3q2-2.06,4.22-4Z"/><path class="cls-4" d="M7.8,172.69c-1.54,2.47-2.85,5.46-2.37,8.44a.1.1,0,0,1-.19.06c-1.42-2.58.92-6.51,2.54-8.52,0,0,0,0,0,0Z"/><path class="cls-4" d="M6.26,170.44c-1.52,3.1-2.76,7.26-1.84,10.72,0,.09-.12.16-.17.07-1.87-3,.37-8.1,2-10.82,0,0,0,0,0,0Z"/><path class="cls-4" d="M4.71,170.19a18.69,18.69,0,0,0-2.43,7.7c0,.12-.22.14-.23,0-.18-2.54,1.17-5.69,2.63-7.72,0,0,0,0,0,0Z"/><path class="cls-3" d="M93.88,169.34A16.1,16.1,0,0,1,96,174.83c.29,1.46.4,3,.72,4.41a1.11,1.11,0,0,0,.27.59c.35.31.93,0,1.16-.36a5.6,5.6,0,0,0,.36-1.35c.12-.45.44-.92.91-.93a1.28,1.28,0,0,1,.64.23,9.34,9.34,0,0,1,4,5.41c.25.84.76,2.49,2,1.91a1.85,1.85,0,0,0,.34-.23l.32-.24c1.33-1,1.8-3.7,1.85-5.17.08-2.07-1-4.28-1.84-6.16a12.38,12.38,0,0,0-2.54-3.32c-1.35-1.37-2.73-2.18-4.18-3.45Z"/><path class="cls-4" d="M102.62,176.07c1.54,2.47,2.84,5.47,2.35,8.45a.1.1,0,0,0,.18.06c1.43-2.58-.89-6.51-2.5-8.53,0,0,0,0,0,0Z"/><path class="cls-4" d="M104.18,173.82c1.5,3.11,2.73,7.28,1.79,10.73,0,.09.12.16.17.08,1.88-3-.33-8.11-1.92-10.83,0,0,0,0,0,0Z"/><path class="cls-4" d="M105.73,173.58a18.68,18.68,0,0,1,2.39,7.71.12.12,0,0,0,.23,0c.19-2.54-1.14-5.7-2.59-7.73,0,0,0,0,0,0Z"/><path class="cls-3" d="M42.7,55.7c1.06,2.67,1.82,8.47,4.5,16.87s16.92,7.94,20.65,2.79C69.7,72.8,70,69.19,69.66,65.25c-.1-1.09-.25-2.19-.44-3.31-.49-3-1.21-6-1.83-8.89C65.7,45.3,63,42.72,54,45.41,50.81,46.37,41.65,53,42.7,55.7Z"/><path class="cls-5" d="M54.49,53.05a.05.05,0,1,0,0-.1.05.05,0,0,0,0,.1Z"/><path class="cls-6" d="M38,50.06c-1.8.33-3.68.38-5.33,1.15-2.69,1.26-4.16,4.15-5,7-1,3.3-2.51,10.71,1.42,12.79a5.23,5.23,0,0,1,1.45.8,2.9,2.9,0,0,1,.52,1c.89,2.45,2.75,4.81,5.38,5.21A5.74,5.74,0,0,0,41,76.52a6.77,6.77,0,0,0,2.11-4.34"/><path class="cls-7" d="M39.91,52.11c-3.17.55-6.59,3.94-7.57,6.52-.92,2.4-.43,5.06.22,7.53a25,25,0,0,0,3,7.39,4.55,4.55,0,0,0,1.1,1.29,3.76,3.76,0,0,0,3.29.42,3.15,3.15,0,0,0,1.23-.64,4.92,4.92,0,0,0,1.19-3.15,33.61,33.61,0,0,1,1.79-7"/><path class="cls-6" d="M35.88,54.3a20.29,20.29,0,0,0,.31,11.48,34.94,34.94,0,0,0,2.1,4.57q1.78,3.47,3.58,6.91c.89,1.72,1.81,3.58,1.55,5.51-.17,1.29-.86,2.53-.74,3.82,1.27-2.12,2.57-4.33,2.8-6.77.28-2.84-.94-5.59-2.4-8s-3.22-4.74-4.21-7.41"/><path class="cls-7" d="M30.37,71.14A12,12,0,0,1,30,62.37a.18.18,0,0,1,.36.08,18.32,18.32,0,0,0,.5,8.55c.1.31-.37.43-.49.14Z"/><path class="cls-6" d="M37.56,70.67a38.52,38.52,0,0,1,2.88,6.91,8.67,8.67,0,0,1-.64,6A8.27,8.27,0,0,0,42,77.47a17.51,17.51,0,0,0-1.69-6.32"/><path class="cls-6" d="M58.06,43.69c.24-.38.71-.34,1.12-.24,4.48,1.2,7.91,7.29,3.47,10.6C61,55.27,59,55.81,57.09,56.65a17.75,17.75,0,0,0-4.81,3.21,9.62,9.62,0,0,1,1.59-3,6.71,6.71,0,0,0-3.84,4c-.54,1.56-.52,3.4-1.67,4.61A15.33,15.33,0,0,1,45.53,61a8.07,8.07,0,0,1-.7-4.21A9.23,9.23,0,0,1,46,53.68c1.22-2.23,2.87-4.11,4-6.36s3.57-4.76,6.24-3.88"/><path class="cls-6" d="M59.15,44a7.54,7.54,0,0,1,4.72.54c5.15,2.19,8.24,7.85,5.42,13.08-.36.65-1.3,1.91-1.3,2.65,0-3.86-.37-5-1.36-7.29S63,49.07,61,47.54"/><path class="cls-6" d="M61.72,44a3.19,3.19,0,0,0-1.23-1.68c-1.28-.89-2.94-1-4.43-1.27A17.12,17.12,0,0,0,41,45.88a22.89,22.89,0,0,0-3.18,4.22c-2,3.45-4,7.15-4.11,11.21-.17,5.56,3.66,9.88,7.91,13,2.12,1.55,5.2,2.53,7.79,1.54,2.89-1.1,2.36-4.37,1.46-6.65-.8-2-3.67-5-2.84-7.27a36.9,36.9,0,0,1,4.15-7.08,13.59,13.59,0,0,1,2.42-2.61C56,51.06,57.41,50,58.81,48.91a9.93,9.93,0,0,0,2.76-3.09A2.39,2.39,0,0,0,61.72,44Z"/><path class="cls-3" d="M44,68.47c-.49,2.83,2.05,6.41,4.25,6.79s4.67-.49,3.67-3.77c-.84-2.75-1.12-6-3.32-6.34S44.48,65.64,44,68.47Z"/><path class="cls-8" d="M62.41,62.42s1.09,3,2.82,3.9a14.12,14.12,0,0,1-1,1.39"/><path class="cls-9" d="M56.57,64c.27.58.82.91,1.24.72a1.05,1.05,0,0,0,.27-1.41c-.27-.58-.82-.91-1.24-.72A1.05,1.05,0,0,0,56.57,64Z"/><path class="cls-9" d="M64.79,60.6c.27.59.82.91,1.24.72a1.05,1.05,0,0,0,.27-1.41c-.27-.58-.82-.9-1.24-.71S64.52,60,64.79,60.6Z"/><path class="cls-10" d="M64.16,69.16A12.57,12.57,0,0,0,67,68a3.35,3.35,0,0,1,.24.65A3.3,3.3,0,1,1,61,70.36a4,4,0,0,1-.13-.76A11.24,11.24,0,0,0,64.16,69.16Z"/><path class="cls-11" d="M59.82,67.23c.23.87-.7,1.89-2.1,2.26s-2.71,0-2.95-.89.71-1.88,2.1-2.26S59.58,66.36,59.82,67.23Z"/><path class="cls-11" d="M67.55,64.7a1.83,1.83,0,0,0,2.11.55c-.1-1.09-.25-2.19-.44-3.31a.46.46,0,0,0-.16.07C67.79,62.71,67.12,63.91,67.55,64.7Z"/><path class="cls-6" d="M57.76,59.23c-2.28.22-4.92,1-6.4,2.85-.38.49.53.65.82.3,1.25-1.59,3.55-2.24,5.5-2.43.55-.05.74-.78.08-.72Z"/><path class="cls-6" d="M67.68,56.81a5.93,5.93,0,0,0-4.88,1c-.43.28.54.25.76.1a4,4,0,0,1,3.34-.7c.26.09,1.13-.31.78-.43Z"/><path class="cls-12" d="M79.74,91.28a10.84,10.84,0,0,1,4,3.4c3.29,4.48,7.2,14.47,7.65,36.31,7.42,31.29,8.7,35.55,8.7,35.55L95.2,172s-17.6-25.69-20.44-56.82C77.42,88.06,79.74,91.28,79.74,91.28Z"/><path class="cls-12" d="M35,91.81l.18.84,4.66,22.76,1.25,6.09c1.33,6.17,2.49,12.72,2.25,19.14,0,.39-.09.78-.11,1.17a1.77,1.77,0,0,1-.42.87c.09-.11.93.07,1.06.11a7.45,7.45,0,0,0,1,.22l1.09.19,1,.17,1,.15a83,83,0,0,0,11.77.93c.89,0,1.79,0,2.68,0a46.5,46.5,0,0,0,6-.47,28.66,28.66,0,0,0,3-.61c.49-.12.94-.1,1.41-.26a11,11,0,0,0,1.29-.4c.16-.18.1-1,.1-1.26,0-.79.1-1.59.16-2.38.16-2.31.35-4.61.59-6.91l.12-1.23a79.61,79.61,0,0,1,1.24-8.22l1.85-8.15,4.74-21s-8.5-7.15-14.53-8.2C57,94.5,47.79,83.83,47.79,83.83l-4.52,2.08a28.26,28.26,0,0,0-5,2.94l-.25.22Z"/><path class="cls-12" d="M37.23,90.13s-11.42,4.75-15.17,38.5C11.85,159.13,10.2,162.4,10.2,162.4l7,4a126.35,126.35,0,0,0,22.88-52C39.83,87.13,37.23,90.13,37.23,90.13Z"/><path class="cls-12" d="M47.74,83.85,49,83.07c.2-.12.47-.36.68-.34s.54.32.74.43l.8.47a7,7,0,0,0,1.59.76c.27.07.54.1.8.18,1.05.34,1.89,1.41,3,1.53.65.08,1.33-.22,2,0a8,8,0,0,1,.76.3,4.17,4.17,0,0,0,1.72.19,3.68,3.68,0,0,0,1.05-.11l1.17-.37a2.34,2.34,0,0,0,.71-.3,7.13,7.13,0,0,0,.83-.82,6.22,6.22,0,0,1,.64-.51,4.34,4.34,0,0,1,.9-.53.6.6,0,0,1,.76.12c.49.45.88,1,1.33,1.51C68.4,85.54,59.71,99.93,47.74,83.85Z"/><g class="cls-13"><path class="cls-14" d="M68.37,85.6a14.14,14.14,0,0,1-4.82,3.21,12.78,12.78,0,0,1-5.81.9,7.25,7.25,0,0,1-1.47-.22,7.08,7.08,0,0,1-1.44-.37l-1.39-.53c-.43-.23-.86-.47-1.28-.72l-.64-.36-.58-.45-1.14-.91c-.7-.68-1.35-1.39-2-2.11.79.56,1.5,1.19,2.28,1.73l1.2.74.59.38.64.3,1.26.6,1.32.42a6.23,6.23,0,0,0,1.34.32,6.27,6.27,0,0,0,1.37.18,14,14,0,0,0,5.47-.64A20.23,20.23,0,0,0,68.37,85.6Z"/></g><path class="cls-15" d="M39.73,115.63a47.11,47.11,0,0,0,1.77-11.5"/><path class="cls-15" d="M77.56,117.56s2.46-9.5.2-13.76"/><path class="cls-15" d="M21.54,130.79s3.47,1,4.93,3"/><path class="cls-15" d="M91.71,133.2s-3.54.68-5.18,2.54"/><path class="cls-16" d="M36.71,293.51S29.79,307.32,26,315a1.65,1.65,0,0,0,0,1.47c.91,1.93,3.4,7,5,9-1.24-.4-16.42-4.72-13.32-9.33,2.65-3.94,4.51-15.1,8.09-26.46"/><path class="cls-17" d="M18.57,313.66a.5.5,0,0,1,.69.12A7.64,7.64,0,0,0,22.45,316c1.46.51,3-.13,3.59.28s4.27,8.26,7.53,10.94c2.39,2,.67,3.48.36,3.55-8.83,2-10-2.49-11-3.63-2.05-2.35-3.44-3.7-5.4-5.91a8,8,0,0,1-1.81-2.83C15.37,316.8,17,314.74,18.57,313.66Z"/><path class="cls-16" d="M78.44,304.23s.29,6,.13,16.47a1.54,1.54,0,0,0,.6,1.27c1.78,1.37,7,5.27,9.69,6.39-1.47.28-18.81,4.51-17.87-1.89.8-5.48-.26-10.37-2.79-21.64"/><path class="cls-17" d="M70.71,323.59a.62.62,0,0,1,.81-.39,20.74,20.74,0,0,0,3.93.35c1.13.13,3.07-1.83,3.83-1.71s6.25,4.22,9.79,5.39a9.29,9.29,0,0,1,3.33,1.53,4.6,4.6,0,0,1,1.32,2,1.61,1.61,0,0,1,.1.81,1.59,1.59,0,0,1-.64.89c-1.36,1.07-17.13.24-20.35-.53a4.67,4.67,0,0,1-3-1.51C68.77,329,69.89,326,70.71,323.59Z"/><path class="cls-18" d="M18.57,313.66a.5.5,0,0,1,.69.12A7.64,7.64,0,0,0,22.45,316c1.46.51,3-.13,3.59.28s4.27,8.26,7.53,10.94c2.39,2,.67,3.48.36,3.55-8.83,2-10-2.49-11-3.63-2.05-2.35-3.44-3.7-5.4-5.91a8,8,0,0,1-1.81-2.83C15.37,316.8,17,314.74,18.57,313.66Z"/><path class="cls-19" d="M24.65,326.55c-2-2.35-3.44-3.7-5.4-5.9a8.05,8.05,0,0,1-1.81-2.83c-.24-1.29.69-2.83,1.89-4l-.07-.08a.5.5,0,0,0-.69-.12c-1.62,1.08-3.2,3.14-2.89,4.77a8,8,0,0,0,1.81,2.83c2,2.21,3.35,3.56,5.4,5.91,1,1.14,2.21,5.67,11,3.63a1.22,1.22,0,0,0,.45-.36C26.74,331.75,25.6,327.63,24.65,326.55Z"/><path class="cls-18" d="M70.71,323.59a.62.62,0,0,1,.81-.39,20.74,20.74,0,0,0,3.93.35c1.13.13,3.07-1.83,3.83-1.71s6.25,4.22,9.79,5.39a9.29,9.29,0,0,1,3.33,1.53,4.6,4.6,0,0,1,1.32,2,1.61,1.61,0,0,1,.1.81,1.59,1.59,0,0,1-.64.89c-1.36,1.07-17.13.24-20.35-.53a4.67,4.67,0,0,1-3-1.51C68.77,329,69.89,326,70.71,323.59Z"/><path class="cls-19" d="M93.72,330.78a6.07,6.07,0,0,0-.24-.59,2.17,2.17,0,0,1-.55.62c-1.36,1.07-17.13.24-20.35-.53a4.67,4.67,0,0,1-3-1.51,1.9,1.9,0,0,1-.2-.37,3,3,0,0,0,.45,2,4.67,4.67,0,0,0,3,1.51c3.22.77,19,1.6,20.35.53a1.59,1.59,0,0,0,.64-.89A1.61,1.61,0,0,0,93.72,330.78Z"/><path class="cls-20" d="M82.16,189.64c-.43,17.88-3,121.77-3,121.77a9.29,9.29,0,0,1-3.75.57,60.45,60.45,0,0,1-6.56-.39S62.64,285,63.51,257.68c.12-3.64.36-7.28.76-10.88a63.69,63.69,0,0,0-.37-17.17c-1-6.42-2.08-13.61-3-21.07-1.8-14.62-3.19-30.29-3.43-43.26-.5-28.47,2.93-20.81,9.37-21.41,5.87-.54,7.22-1.2,7.22-1.2S82.8,162.29,82.16,189.64Z"/><path class="cls-20" d="M42.77,142.68s-10.87,12.5-8.86,29.86c1.37,11.88,3.88,39.83,6.3,55.14.84,5.26,1,10.55-1.23,15.39-8.29,18.15-18.93,62.37-18.93,62.37s6,3.31,11,3.09c0,0,23.51-51.25,27.64-66.33,7.61-27.9,11.61-99,11.61-99Z"/><path class="cls-21" d="M62.47,223.23c2.08-13.8,3.31-29.12,4-41.07"/><ellipse class="cls-22" cx="26.45" cy="320.45" rx="0.84" ry="0.63"/><ellipse class="cls-22" cx="27.7" cy="322.11" rx="0.51" ry="0.38"/><ellipse class="cls-22" cx="80.24" cy="324.36" rx="0.84" ry="0.63" transform="translate(-153.09 85.18) rotate(-30.4)"/><ellipse class="cls-22" cx="82.16" cy="325.16" rx="0.51" ry="0.38" transform="translate(-153.23 86.27) rotate(-30.4)"/><path class="cls-23" d="M54.56,155.08c-1,2.15-4.69,5-6.88,6a17.73,17.73,0,0,1-7,1.23"/><path class="cls-23" d="M38.16,171.35c0,.13.14,1.2.32,3"/><path class="cls-24" d="M38.89,178.42c1.51,15.33,4.91,50.51,6.28,53.85-.48,5.54-14.86,42.49-19.29,64.14"/><path class="cls-23" d="M25.49,298.43c-.19,1-.35,2-.48,3"/><path class="cls-2" d="M69.79,85.85s13.83,2.81-1.14,40.87-25.51,59.82-25.51,59.82-1,3.06,1.51.55,8.8-17.44,16.64-36.69,21.72-47.91,14-62.12C75.31,88.28,73.28,84.06,69.79,85.85Z"/><path class="cls-10" d="M33.25,175.41s11.32,4.11,12.2,6.42-3.87,16.52-6.92,18.65-16.61-4.55-17.35-6S26,173.32,33.25,175.41Z"/><path class="cls-2" d="M26.19,180.53s1.44,7.15,2.55,8.41S41.49,182,43,182.2c1.14.16.88-.09.66-.23s-1.09-.33-3,.74-10.48,5.82-11.45,5.87-2.64-8-2.65-8.18S26.08,180,26.19,180.53Z"/><path class="cls-25" d="M126.2,303.77a66.63,66.63,0,0,1,0,9.68c-.23,1.66,8.86,1.5,11.15,0-.1-5.43.2-14.47.2-14.47"/><path class="cls-20" d="M122.23,322.27c1.13,1.55,9.42,6.39,16.26,10.13,8.69,4.77,16.88.53,16.22-2.18a3.94,3.94,0,0,0-.57-1.25c-1.56-2.47-5.62-5.21-8-6.57-2.84-1.58-5.44-7.6-7.08-8.92-.72-.58-.89-.44-.89-.44a19.86,19.86,0,0,1-8.93,0,21.85,21.85,0,0,1-3.43-1c-1.12,0-1.39,1.06-1.39,2S121.1,320.72,122.23,322.27Z"/><path class="cls-26" d="M137.4,320.91s4-3.59,5.69-2.91c1.11.44-1.49.59-3.41,2.28S136.54,322.17,137.4,320.91Z"/><path class="cls-26" d="M138.82,322.82s4-3.59,5.7-2.91c1.1.44-1.49.58-3.41,2.27S138,324.08,138.82,322.82Z"/><path class="cls-26" d="M140.24,324.73s4-3.6,5.7-2.92c1.11.44-1.49.59-3.41,2.28S139.38,326,140.24,324.73Z"/><path class="cls-25" d="M152.21,295.2s-1,8.52-1.42,12.4c1.2,1.18,8.86,2.17,11.14.51.26-5.89,1.43-13.37,1.43-13.37"/><path class="cls-20" d="M146.92,316.87c1.13,1.55,9.42,6.39,16.26,10.13,8.69,4.77,16.88.53,16.22-2.19a3.51,3.51,0,0,0-.19-.54c-1.12-2.61-5.75-5.78-8.41-7.27-2.86-1.59-5.45-7.6-7.09-8.93-.71-.57-.89-.43-.89-.43a21.27,21.27,0,0,1-11-.5c-.88-.26-1.4-.47-1.4-.47-1.13,0-1.39,1.06-1.39,2S145.8,315.32,146.92,316.87Z"/><path class="cls-26" d="M162.09,315.51s4-3.59,5.69-2.91c1.11.44-1.49.58-3.41,2.27S161.23,316.77,162.09,315.51Z"/><path class="cls-26" d="M163.51,317.42s4-3.6,5.69-2.92c1.11.44-1.49.59-3.41,2.28S162.65,318.67,163.51,317.42Z"/><path class="cls-26" d="M164.93,319.32s4-3.59,5.7-2.91c1.11.44-1.49.58-3.41,2.28S164.07,320.58,164.93,319.32Z"/><path class="cls-20" d="M115.69,149.76c.77-2.83,1.45-4.63,1.45-4.63l55.62-2.58c.22,1,.45,1.94.66,2.94,5.12,24.41,5.17,58.34,5,74.09l-.93,14.79v0c-2.8,18-11.56,62.58-11.56,62.58-4.24.67-18,.36-18,.36s.17-1.2.47-3.28V294c1.73-12.24,3.19-55.05,6.95-63.8-5.22-21.76-6.41-48.79-6.41-48.79l.85-5.33s-.53,1.54-.53,1.54-2.56,35.3-3.53,44.76c-.06.61-.12,1.09-.17,1.46-.21,1.63-.71,7.83-1.33,16-1.69,22.54-4.28,60.25-4.28,60.25-4.9,1.6-14.32.46-14.32.46-1.86-9-5.32-59.41-1.8-75.13-2.49-16.26-6.73-34.18-10.12-55.84C112.66,162.69,114.32,154.68,115.69,149.76Z"/><path class="cls-27" d="M123.87,299.7s0,3,1.19,4,14.67,1.11,15.56.22c.63-.63.77-3,.8-4.4a1,1,0,0,0-1-1c-3.87,0-15.58-.28-16.1-.2S123.87,299.7,123.87,299.7Z"/><path class="cls-27" d="M147.17,293.56s-.37,2.95.69,4.09,16.94,3,17.94,2.25c.7-.55,1.13-2.91,1.33-4.26a1,1,0,0,0-.82-1.1c-3.84-.49-17.95-2.32-18.47-2.3S147.17,293.56,147.17,293.56Z"/><path class="cls-28" d="M115.69,149.76c36.92,4.35,51.84-.46,57.73-4.27-.21-1-.44-2-.66-2.94l-55.62,2.58S116.46,146.93,115.69,149.76Z"/><path class="cls-23" d="M132.16,154.06c-1,2.15-4.68,5.06-6.87,6a17.72,17.72,0,0,1-7,1.22"/><path class="cls-23" d="M169.59,151.05a17.25,17.25,0,0,0,3.83,8.48"/><path class="cls-23" d="M148.87,182.16a18.12,18.12,0,0,1,1.21-6c1.2-3,3-8.32,3-8.32"/><path class="cls-29" d="M162.21,32.25c.47,2.73-2,6.18-4.1,6.55s-4.5-.47-3.54-3.64c.81-2.65.83-4.95,2.87-5.64A3.45,3.45,0,0,1,162.21,32.25Z"/><path class="cls-29" d="M123,32.49c-.48,2.73,2,6.18,4.09,6.55s4.5-.47,3.54-3.63c-.81-2.65-.86-5.25-3-5.62S123.43,29.76,123,32.49Z"/><path class="cls-30" d="M150.41,45.66v3.5a16.57,16.57,0,0,1-8.62,2.24,14.16,14.16,0,0,1-7.1-1.7v-4Z"/><path class="cls-29" d="M157.46,30.42c0,10.95-1.92,19.46-14.7,19.83-13.86.4-14.71-8.88-14.71-19.83s6.59-19.82,14.71-19.82S157.46,19.47,157.46,30.42Z"/><path class="cls-31" d="M140.8,30.4s-.05,4-1.71,5.82a17.19,17.19,0,0,0,1.81,1.22"/><path class="cls-32" d="M147.19,30.85c-.07.81-.59,1.42-1.16,1.37s-1-.74-.92-1.55.6-1.43,1.17-1.38S147.26,30,147.19,30.85Z"/><path class="cls-33" d="M145.11,25.83s4.54-1.52,7.34.31A6.3,6.3,0,0,0,145.11,25.83Z"/><path class="cls-10" d="M141.46,39.09a19.26,19.26,0,0,1-4.43-.31,4.15,4.15,0,0,0-.06.87,4.68,4.68,0,0,0,9.36-.34,4.27,4.27,0,0,0-.14-1A18.81,18.81,0,0,1,141.46,39.09Z"/><path class="cls-30" d="M147.4,36c.09,1.13,1.63,1.94,3.44,1.8s3.21-1.16,3.12-2.3-1.62-1.94-3.43-1.8S147.32,34.86,147.4,36Z"/><path class="cls-32" d="M134.45,30.85c.07.81.6,1.42,1.17,1.37s1-.74.91-1.55-.59-1.43-1.16-1.38S134.38,30,134.45,30.85Z"/><path class="cls-33" d="M138.51,26s-4.66-1.06-7.26,1.05A6.3,6.3,0,0,1,138.51,26Z"/><path class="cls-30" d="M135.49,36.54c-.08,1.13-1.62,1.94-3.43,1.8s-3.22-1.16-3.13-2.29,1.62-1.94,3.43-1.81S135.58,35.41,135.49,36.54Z"/><path class="cls-34" d="M135.81,14.33a6.43,6.43,0,0,0,.43,2.69,3.46,3.46,0,0,0,.71,1.1A7.3,7.3,0,0,0,138,19a3.14,3.14,0,0,1-1.34-.61,3.94,3.94,0,0,1-.54-.54,3.9,3.9,0,0,1-.38-.66,3.61,3.61,0,0,1-.28-1.48A3.41,3.41,0,0,1,135.81,14.33Z"/><path class="cls-34" d="M137.94,13.08a5.89,5.89,0,0,0-.5,2.85,5.21,5.21,0,0,0,.33,1.39c.08.23.21.44.3.67s.25.43.36.67a5.57,5.57,0,0,1-.57-.52,4.7,4.7,0,0,1-.46-.64,3.83,3.83,0,0,1-.49-1.52,3.67,3.67,0,0,1,.2-1.58A3.26,3.26,0,0,1,137.94,13.08Z"/><path class="cls-6" d="M157.84,29.44a5.84,5.84,0,0,0-2.05,2.08l0-4.55a5.79,5.79,0,0,0-.74-2.79l-2.76-4.88a8.83,8.83,0,0,0,1.9-2.32,9.84,9.84,0,0,0,1.28-4.09,35.3,35.3,0,0,1,4.21,5.05c.25.86-.5,7.68-1.19,10.78A1,1,0,0,1,157.84,29.44Z"/><path class="cls-6" d="M138.3,12.33a5.37,5.37,0,0,0,1.21,7.45,7.85,7.85,0,0,0,4,1.42,13.28,13.28,0,0,0,5.47-.36c4.84-1.41,7.52-7,6.12-11.75a8.51,8.51,0,0,0-.91-2A4.64,4.64,0,0,1,153,9.72a6.74,6.74,0,0,0-.27-4.14,9,9,0,0,1-6.87,3.34c.68-.45.88-1.81.85-2.63-.3.71-4.5,1.88-5.59,2.06Z"/><path class="cls-6" d="M155.37,12.82a7.47,7.47,0,0,0-2.84-1.75A84.61,84.61,0,0,0,141.1,8.35a13.59,13.59,0,0,0-3.66-.1,13.28,13.28,0,0,0-8.29,4.67,11.49,11.49,0,0,1-2.41,2.49s.26.27,1.36-.23a14.59,14.59,0,0,0-2.78,5.42c-.56,3.49.31,7.42.57,9.09a7.17,7.17,0,0,1,1.71.1,2.27,2.27,0,0,1,1.67,1.26c0-2.49-.06-8.12,1-10,2.15.24,4.35,1,7.73-2l.42-.38h0q.58-.56,1.23-1.26c3.45.44,6.36.83,8.51,1.12l.64.09,3,.42.34,0h0l.12.22h0a8.83,8.83,0,0,0,1.9-2.32,9.84,9.84,0,0,0,1.28-4.09A.27.27,0,0,0,155.37,12.82Z"/><path class="cls-35" d="M155.45,12.89A9.84,9.84,0,0,1,154.17,17a8.83,8.83,0,0,1-1.9,2.32h0a8.75,8.75,0,0,1-1.11.81A9.28,9.28,0,0,1,147,21.42a14.16,14.16,0,0,1-2.16,0l-1.07-.14q-.53-.09-1-.21l1.07.07,1.06,0A14.87,14.87,0,0,0,147,21a10.09,10.09,0,0,0,3.9-1.36,8.31,8.31,0,0,0,.92-.63,10.13,10.13,0,0,0,2-2.26,10.39,10.39,0,0,0,1-1.87,8.82,8.82,0,0,0,.41-1.12C155.3,13.49,155.38,13.19,155.45,12.89Z"/><path class="cls-35" d="M151.3,14.74a10.26,10.26,0,0,1-1.51,2.75,10.09,10.09,0,0,1-2.27,2.2,7.46,7.46,0,0,1-2.94,1.21,7.34,7.34,0,0,1-3.13-.12q.39,0,.78,0a3.31,3.31,0,0,0,.77,0l.76-.08.74-.17a8.62,8.62,0,0,0,2.72-1.25,12.72,12.72,0,0,0,2.26-2A18.07,18.07,0,0,0,151.3,14.74Z"/><path class="cls-25" d="M205.43,139.78l-5.72,4.58a43.53,43.53,0,0,0,5.06,4,3.82,3.82,0,0,0,.47.25,4.75,4.75,0,0,1,1.39,1.31c.81,1,1.69,2.33,2.39,3.34,4-1.86,10.85-6.1,10.85-6.1l-.31-.11h0c-.94-.37-3.74-1.44-6.25-2.47a42.4,42.4,0,0,1-4.24-1.91,18.42,18.42,0,0,1-2.31-1.71C206,140.3,205.43,139.78,205.43,139.78Z"/><path class="cls-25" d="M207.45,151c.22-1.49,4.7-5.89,9.45-4.58,4.39,1.22,5.64.69,8.72,2,2.66,1.14.2,1.56-2.12,1.91s-3.32-.07-2.53,1.87,7.17,8.11,7.67,10.38S221,157,221,157s5.73,7.7,5.08,8.87c-.79,1.39-7.38-6.48-7.38-6.48s3.93,7.23,3.42,7.6c-1,.71-6.05-5.88-6.05-5.88s2.45,5.12,1.43,5.17S210.58,158.3,207.45,151Z"/><path class="cls-36" d="M214.52,159.16h0c.21,0,5.26-.63,6.78-5a.31.31,0,1,0-.58-.21c-1.4,4-6.22,4.58-6.27,4.59a.31.31,0,0,0,0,.62Z"/><path class="cls-37" d="M206.32,149.53l.31.37a13.57,13.57,0,0,0,6.65-5.35l-1.35-.56"/><rect class="cls-29" x="134.69" y="44.06" width="15.73" height="14.85"/><path class="cls-38" d="M116.07,109.54c.08.87.15,1.75.19,2.62.1,2-.06,4-.12,6-.07,2.76-.2,5.51-.34,8.26-.25,4.61-.58,9.21-.87,13.81l-.06,1c0,.35,0,.68-.05,1a3.6,3.6,0,0,0,2.75,3.66l.76.18.16,0a74.26,74.26,0,0,0,9.1,1.27l.52,0,1.68.13c8.87.61,22.59.66,43.41-1a2.66,2.66,0,0,0,2.48-2.63c.11-9.31-.9-39.66-.9-39.66l-4.18-42c-3.68-1.56-14.78-4.79-17.34-5.52a1.36,1.36,0,0,0-1,0,12.33,12.33,0,0,1-1.49.69C146.91,58.91,140.46,60,135,57l-.35-.2a1.87,1.87,0,0,0-1.24-.25c-3.54.52-16.4,4.35-23.76,10.8h4.67s.54,20.62,1.1,33c.09,1.93.17,3.86.32,5.78C115.86,107.3,116,108.42,116.07,109.54Z"/><g class="cls-13"><path class="cls-14" d="M160,58.67a22.73,22.73,0,0,1-8.6,4.66,32.62,32.62,0,0,1-9.77,1.4l-2.47-.1c-.83,0-1.64-.19-2.46-.28a39.67,39.67,0,0,1-4.83-1c-1.59-.4-3.14-1-4.7-1.47-1.5-.64-3-1.28-4.49-2,1.57.47,3.1,1,4.65,1.5s3.13.87,4.71,1.18,3.17.66,4.78.77c.8.07,1.6.22,2.41.25l2.41.07a38,38,0,0,0,9.55-1.13c.77-.21,1.56-.41,2.31-.69s1.51-.56,2.25-.88A22.66,22.66,0,0,0,160,58.67Z"/></g><path class="cls-15" d="M174.78,104.22s-.8-18.31-4.17-23.77"/><path class="cls-30" d="M135,57a15.94,15.94,0,0,0,3.26,1.9,12,12,0,0,0,9.84,0,11.54,11.54,0,0,0,2.62-1.55C146.91,58.91,140.46,60,135,57Z"/><path class="cls-38" d="M170.92,95c.12.41.35,1.26.65,2.41,1.33,5,3.34,16.37,5.36,21.74a10.52,10.52,0,0,0,1.06,2.22c8.08,11.57,26.94,28.63,26.94,28.63a10.54,10.54,0,0,0,4.75-2.35,37.5,37.5,0,0,0,2.92-3.92s-13.55-20.17-20.34-30l-.77-1c.73-1.76-.31-1.52-.49-1.47.11-.12.88-1-.4-1.89-2.48-12.32-8.07-33-10.66-38a25.89,25.89,0,0,0-9.34-9.16l-.17,5S170.24,94.67,170.92,95Z"/><path class="cls-25" d="M93.1,171.53c.13,1.46.38,9.06,3.6,9.55h0a2.05,2.05,0,0,0,.24.3l.08.08a2,2,0,0,0,2.23.68l.09-.05.15.09c.76.51,1.33.81,2,.09l.1-.11a.69.69,0,0,0,.11.13,1.21,1.21,0,0,0,1.35.2,1,1,0,0,0,.4-.35.91.91,0,0,0,.16-.51,22.63,22.63,0,0,1,.28-2.25c.15-.86.29-1.68.32-2a6.48,6.48,0,0,0,3.56-3.81,13,13,0,0,0-.43-5.33,23.29,23.29,0,0,1-.66-3.62c0-.41-.07-.81-.08-1.22a7,7,0,0,0-.08-1c.18-.56.4-1.29.66-2.15l-9-4.11c-.69,3.37-1.12,5.8-1.19,6.16l-.1.14a3.4,3.4,0,0,0-.42.78s-.21.4-.53,1a.83.83,0,0,1-.07.13C94.9,166.43,93,170.44,93.1,171.53Z"/><g class="cls-39"><path class="cls-40" d="M101.14,177.05a9.34,9.34,0,0,1,.09-1c0-.17,0-.35.08-.54.14-.87.35-1.92.55-2.92l-.19-.05c-.21,1-.42,2.08-.56,3,0,.17,0,.34-.08.5a10,10,0,0,0-.09,1,21.12,21.12,0,0,0,.58,5.24l.1-.11a.69.69,0,0,0,.11.13A20.67,20.67,0,0,1,101.14,177.05Z"/><path class="cls-40" d="M98.44,176.78a12.3,12.3,0,0,1,0-1.5,2.45,2.45,0,0,1,0-.27c.07-.83.19-1.8.3-2.72h-.2c-.11.89-.22,1.82-.29,2.63a2.83,2.83,0,0,0,0,.29,11.92,11.92,0,0,0-.06,1.58,20.44,20.44,0,0,0,1.06,5.34l.1,0,.13.1A19.7,19.7,0,0,1,98.44,176.78Z"/><path class="cls-40" d="M95.79,176.78a30.4,30.4,0,0,1,0-4.18l-.21,0a28.45,28.45,0,0,0,0,4.19,22.25,22.25,0,0,0,1.1,4.27l.29.3.07.08A22,22,0,0,1,95.79,176.78Z"/><path class="cls-41" d="M104.24,177.36s.43-6,.88-5.45a3.26,3.26,0,0,1,.69,2A11.24,11.24,0,0,1,104.24,177.36Z"/></g><path class="cls-38" d="M110.71,66.51c5-2.54,9.16.85,17.34-1.11l6,7.46-.12,3.21-2.61,2.85c-6.26,3.08-8.85.8-12.12,7.4-2.7,12-8.71,28.18-8.78,29.41l-.75,6.68c-.09,2.14-.27,32.28-2.44,37.86a10.27,10.27,0,0,0-4.12-.63,10.52,10.52,0,0,1-6.24-2.1s-5.32-29-4.27-44.4C93.49,99.94,103.89,70,110.71,66.51Z"/><path class="cls-15" d="M110.4,115.73a18,18,0,0,0-9.16-2.46"/><path class="cls-15" d="M191.49,112.72a9.64,9.64,0,0,0-7.52,4.11"/><g class="cls-13"><path class="cls-42" d="M125.94,133.1c0,.64,0,1.21,0,1.85"/><path class="cls-42" d="M128.54,133.13a10.28,10.28,0,0,1,0,2.35"/><path class="cls-42" d="M128.9,137.27a4.78,4.78,0,0,0,.1,3.15"/><path class="cls-42" d="M131.29,138.14a18.55,18.55,0,0,1,.05,2.34"/><path class="cls-42" d="M125.52,141.65a11.28,11.28,0,0,0-.34,1.79"/><path class="cls-42" d="M127.82,142.61a3.22,3.22,0,0,0-.7,1.8"/><path class="cls-42" d="M133.57,142.73a5.56,5.56,0,0,0,.16,2.67"/><path class="cls-42" d="M135.77,143.45c0,.81.1,1.54.14,2.34"/><path class="cls-42" d="M133.28,134.86a7.82,7.82,0,0,1-.24,2"/><path class="cls-42" d="M136.1,135.39a5.48,5.48,0,0,0-.66,2.62"/><path class="cls-42" d="M137.34,139.59a8.26,8.26,0,0,0-.12,2.59"/><path class="cls-42" d="M140.32,140a23.36,23.36,0,0,0,0,2.51"/><path class="cls-42" d="M122.12,135.74a9,9,0,0,0-.68,2.64"/><path class="cls-42" d="M124.41,137a24.73,24.73,0,0,0-.75,2.41"/><path class="cls-42" d="M142.85,143.89a3,3,0,0,0,.51,2.57"/><path class="cls-42" d="M145.48,144.35a9,9,0,0,0,.43,2.65"/><path class="cls-42" d="M120.25,139.26a5.77,5.77,0,0,0-.58,2.08"/><path class="cls-42" d="M118.5,138a5.71,5.71,0,0,0-.58,2.08"/><path class="cls-42" d="M121.49,131.84a5.86,5.86,0,0,0-.32,2.13"/><path class="cls-42" d="M119.24,131.51a5.83,5.83,0,0,0,.17,2.15"/><path class="cls-42" d="M142.5,137c0,1-.06,2,0,3"/><path class="cls-42" d="M144.86,137.42c0,.81,0,1.62.06,2.42"/><path class="cls-42" d="M146.93,140.49a12.62,12.62,0,0,1,.25,2.58"/><path class="cls-42" d="M149.26,140.31a7.72,7.72,0,0,1,.26,2.82"/><path class="cls-42" d="M149.21,136.43a5.35,5.35,0,0,1,.59,2.32"/><path class="cls-42" d="M151.33,135.78a7,7,0,0,1,.63,3"/><path class="cls-42" d="M150.84,143.81a16.45,16.45,0,0,1,.19,3.06"/><path class="cls-42" d="M153,143.88a3.66,3.66,0,0,1,.53,3.18"/><path class="cls-42" d="M154,140a5.35,5.35,0,0,1,.72,2.88"/><path class="cls-42" d="M156.58,139.41a5.7,5.7,0,0,1,.45,3"/><path class="cls-42" d="M157,135a9.84,9.84,0,0,1,.55,3.21"/><path class="cls-42" d="M159.31,134.52a7.76,7.76,0,0,1,.71,2.8"/><path class="cls-42" d="M159.17,143.26c.33,1,1,2.14.55,3.13"/><path class="cls-42" d="M161.86,143.15a5.06,5.06,0,0,1,.25,2.58"/><path class="cls-42" d="M161.79,138.38c.15,1.05.74,1.91.81,3"/><path class="cls-42" d="M164.28,138c.41.79,1,2.14.54,3"/><path class="cls-42" d="M163.48,133.54c.93.61,1.21,2.22,1.26,3.19"/><path class="cls-42" d="M166.13,133a19,19,0,0,1,1,3.76"/><path class="cls-42" d="M166.82,141.41a4.44,4.44,0,0,1,.06,2.42"/><path class="cls-42" d="M168.5,140.94c.49.71.92,1.82.42,2.49"/><path class="cls-42" d="M168.9,137.12a3.63,3.63,0,0,1,.79,2.64"/><path class="cls-42" d="M171,136.23a4,4,0,0,1,.62,2.8"/><path class="cls-42" d="M170.12,132a3.92,3.92,0,0,1,1.27,3.18"/><path class="cls-42" d="M172.07,131.65a5.19,5.19,0,0,1,1.09,3.19"/><path class="cls-42" d="M172.78,139a8.45,8.45,0,0,1,.34,2.58"/><path class="cls-42" d="M174.07,138a3.5,3.5,0,0,1,.62,2.72"/></g><path class="cls-43" d="M131.29,108.6h0a7.55,7.55,0,0,1-7.56-7.56V86.66l15.12,1.47V101A7.55,7.55,0,0,1,131.29,108.6Z"/><path class="cls-15" d="M175.05,112.64s-.77-22.94-3.71-28.49"/><path class="cls-15" d="M115.45,100.39s5-6.9,5.72-8.93"/></g></g></svg>