<svg id="_1" data-name="1" xmlns="http://www.w3.org/2000/svg" xmlns:xlink="http://www.w3.org/1999/xlink" viewBox="0 0 159.97 115.17"><defs><style>.cls-1{fill:#e30613;}.cls-1,.cls-10,.cls-12,.cls-13,.cls-14,.cls-15,.cls-18,.cls-19,.cls-2,.cls-20,.cls-21,.cls-3,.cls-4,.cls-5,.cls-6,.cls-7,.cls-8,.cls-9{fill-rule:evenodd;}.cls-2{fill:#bc1d20;}.cls-3{fill:#692d2c;}.cls-4{fill:#ededed;}.cls-5{fill:#98c1e7;}.cls-6{fill:#f59c08;}.cls-7{fill:#dd6307;}.cls-8{fill:url(#linear-gradient);}.cls-11,.cls-9{fill:#fff;}.cls-10{fill:#008bd2;}.cls-12{fill:#dadada;}.cls-13{fill:#ef7d00;}.cls-14{fill:#d3521a;}.cls-15,.cls-16{fill:#b2b2b2;}.cls-17{fill:#f8f8f8;}.cls-18{fill:#575756;}.cls-19{fill:#9b9791;}.cls-20{fill:#6b655d;}.cls-21{fill:#bab3ab;}</style><linearGradient id="linear-gradient" x1="104.49" y1="-6.13" x2="109.52" y2="34.85" gradientUnits="userSpaceOnUse"><stop offset="0.16" stop-color="#858585"/><stop offset="0.83" stop-color="#fff"/></linearGradient></defs><title>parkingbarrier</title><polygon class="cls-1" points="107.89 28.02 7.45 85.46 7.44 85.01 7.44 77.02 100.39 23.82 107.89 28.02"/><polygon class="cls-2" points="110.66 29.56 10.22 87.01 10.22 86.55 10.22 78.56 103.17 25.37 110.66 29.56"/><polygon class="cls-3" points="10.22 87 10.22 78.56 7.44 77.02 7.46 85.44 10.22 87"/><polygon class="cls-4" points="73.52 42.33 81.84 46.05 86.08 43.62 77.77 39.91 73.52 42.33"/><polygon class="cls-4" points="65.09 47.16 73.4 50.87 77.65 48.45 69.34 44.73 65.09 47.16"/><polygon class="cls-4" points="56.66 51.98 64.97 55.7 69.21 53.27 60.91 49.55 56.66 51.98"/><polygon class="cls-4" points="48.23 56.81 56.54 60.52 60.78 58.09 52.48 54.38 48.23 56.81"/><polygon class="cls-4" points="39.8 61.63 48.1 65.34 52.35 62.91 44.04 59.2 39.8 61.63"/><polygon class="cls-4" points="31.37 66.46 39.67 70.17 43.91 67.74 35.61 64.03 31.37 66.46"/><polygon class="cls-4" points="22.94 71.28 31.23 74.99 35.48 72.56 27.18 68.85 22.94 71.28"/><polygon class="cls-4" points="14.51 76.11 22.8 79.81 27.04 77.39 18.75 73.68 14.51 76.11"/><polygon class="cls-5" points="125.15 67.14 105.36 78.84 89.81 70.04 109.61 58.33 125.15 67.14"/><polygon class="cls-6" points="105.42 76.14 105.42 27.33 94.25 21.03 94.27 69.82 105.42 76.14"/><polygon class="cls-7" points="121.08 18.4 105.42 27.33 105.42 76.14 121.11 67.17 121.08 18.4"/><polygon class="cls-8" points="121.08 18.4 105.42 27.33 94.25 21.03 109.76 12.06 121.08 18.4"/><path class="cls-9" d="M118.72,26.58l-10.48,6a1.48,1.48,0,0,0-.65,1.17V46.52c0,.43.29.62.65.41l10.48-6a1.49,1.49,0,0,0,.64-1.16V27C119.36,26.56,119.07,26.37,118.72,26.58Z"/><path class="cls-10" d="M118.33,27.33l-9.7,5.56A1.36,1.36,0,0,0,108,34V45.79c0,.4.27.58.61.39l9.7-5.56a1.38,1.38,0,0,0,.6-1.08V27.72C118.93,27.32,118.66,27.14,118.33,27.33Z"/><path class="cls-11" d="M113.88,31a8.65,8.65,0,0,1,1.56-.75,1.16,1.16,0,0,1,1.21.3,2.39,2.39,0,0,1,.5,1.72,5.28,5.28,0,0,1-.29,1.76,5.8,5.8,0,0,1-.72,1.43,4.94,4.94,0,0,1-.88,1,11.81,11.81,0,0,1-1.38.95V35.68a5.39,5.39,0,0,0,.78-.6,2.82,2.82,0,0,0,.53-.82,2.26,2.26,0,0,0,.2-.91.93.93,0,0,0-.28-.77.67.67,0,0,0-.68-.06,4.61,4.61,0,0,0-.55.26ZM110.67,43.2V32.9l2.74-1.59.47-.28v1.75l-.68.39-.82.48v2.92l.93-.54.57-.35v1.76l-.39.23-1.11.65v3.89Z"/><path class="cls-9" d="M13.89,78c1.42-.84,2.57-.2,2.57,1.43a5.7,5.7,0,0,1-2.57,4.44c-1.42.84-2.58.19-2.58-1.43A5.71,5.71,0,0,1,13.89,78Z"/><path class="cls-12" d="M14.09,78.08c1.42-.83,2.57-.19,2.57,1.43A5.71,5.71,0,0,1,14.09,84c-1.42.83-2.57.19-2.57-1.43A5.72,5.72,0,0,1,14.09,78.08Z"/><path class="cls-13" d="M14.09,78.64c1.15-.67,2.08-.15,2.08,1.16a4.61,4.61,0,0,1-2.08,3.6c-1.15.68-2.09.16-2.09-1.16A4.65,4.65,0,0,1,14.09,78.64Z"/><path class="cls-14" d="M14.34,78.83c1.15-.67,2.09-.15,2.09,1.16a4.64,4.64,0,0,1-2.09,3.6c-1.15.67-2.08.15-2.08-1.16A4.63,4.63,0,0,1,14.34,78.83Z"/><polygon class="cls-15" points="105.42 32.05 121.08 23.1 121.08 18.4 105.42 27.33 105.42 32.05"/><polygon class="cls-12" points="105.42 32.05 94.24 25.68 94.24 20.98 105.42 27.33 105.42 32.05"/><ellipse class="cls-16" cx="107.55" cy="19.63" rx="3.56" ry="2.27"/><ellipse class="cls-17" cx="107.55" cy="18.73" rx="3.56" ry="2.27"/><path class="cls-13" d="M107.55,10.49h0a3.45,3.45,0,0,0-3.44,3.44v4.95c.91,2.34,6.07,2.28,6.89,0V13.93A3.45,3.45,0,0,0,107.55,10.49Z"/><path class="cls-14" d="M107.55,11.09h0a3,3,0,0,0-3,3c0,3.28,3,6,6.07,4.87V14.12A3,3,0,0,0,107.55,11.09Z"/><path class="cls-9" d="M108.94,13c-.43.18-.68.55-.56.82s.56.34,1,.16.68-.55.57-.83S109.37,12.85,108.94,13Z"/><path class="cls-5" d="M141.37,91.5c4.65,0,8.41,2,8.41,4.46s-3.76,4.46-8.41,4.46S133,98.42,133,96,136.73,91.5,141.37,91.5Z"/><path class="cls-18" d="M141.5,50.31h0a1.25,1.25,0,0,0-1.24,1.25V95.68c.33.85,2.2.83,2.49,0V51.56A1.25,1.25,0,0,0,141.5,50.31Z"/><polygon class="cls-19" points="143.88 60.45 143.88 48.74 135.27 43.74 135.28 55.45 143.88 60.45"/><polygon class="cls-20" points="146.88 47.03 143.88 48.74 143.88 60.45 146.89 58.73 146.88 47.03"/><polygon class="cls-21" points="146.88 47.03 143.88 48.74 135.27 43.74 138.23 42.02 146.88 47.03"/><path class="cls-18" d="M139.58,50c-1-.6-1.86-.13-1.86,1a4.12,4.12,0,0,0,1.86,3.22c1,.6,1.86.14,1.86-1A4.15,4.15,0,0,0,139.58,50Z"/></svg>