<svg id="_1" data-name="1" xmlns="http://www.w3.org/2000/svg" xmlns:xlink="http://www.w3.org/1999/xlink" viewBox="0 0 109.04 152.51"><defs><style>.cls-1{fill:#98c1e7;}.cls-1,.cls-10,.cls-11,.cls-12,.cls-14,.cls-15,.cls-16,.cls-17,.cls-18,.cls-19,.cls-2,.cls-20,.cls-21,.cls-22,.cls-3,.cls-4,.cls-5,.cls-6,.cls-7,.cls-8,.cls-9{fill-rule:evenodd;}.cls-2{fill:#9d9d9e;}.cls-3{fill:#dadada;}.cls-4{fill:#9d9d9c;}.cls-5{fill:#0462af;}.cls-6{fill:url(#GradientFill_1);}.cls-7{fill:#b2b2b2;}.cls-8{fill:#706f6f;}.cls-9{fill:#d6d6d6;}.cls-10{fill:#ededed;}.cls-11{fill:#262162;}.cls-12{fill:#6f69b3;}.cls-13,.cls-14{fill:#fff;}.cls-15{fill:#008bd2;}.cls-16{fill:#3c3c3b;}.cls-17{fill:#1d1d1b;}.cls-18{fill:#717b73;}.cls-19,.cls-23{fill:#fc0;}.cls-20{fill:#ffed00;}.cls-21{fill:#d29717;}.cls-22{fill:#575756;}</style><linearGradient id="GradientFill_1" x1="66.06" y1="15.19" x2="47.97" y2="45.3" gradientUnits="userSpaceOnUse"><stop offset="0" stop-color="#ededed"/><stop offset="1" stop-color="#fff"/></linearGradient></defs><title>parkingmeter</title><polygon class="cls-1" points="31.11 121.93 56.09 136.7 85.39 120 60.41 105.23 31.11 121.93"/><polygon class="cls-2" points="55.71 133.78 55.71 96.57 55.66 96.35 80.05 82.46 80.03 119.91 55.71 133.78"/><polygon class="cls-3" points="34.78 56.85 48.36 65.24 55.71 96.4 55.71 133.78 34.74 121.76 34.78 56.85"/><polygon class="cls-4" points="34.78 56.85 48.36 65.23 55.71 96.4 55.71 121.96 34.75 109.91 34.78 56.85"/><polygon class="cls-5" points="55.02 117.83 55.02 47.62 82.33 32.07 82.31 102.26 55.02 117.83"/><polygon class="cls-3" points="32.5 27.15 55.02 47.62 55.02 117.83 32.46 104.94 32.5 27.15"/><polygon class="cls-6" points="32.45 27.15 55.02 47.62 82.33 32.07 60.02 11.42 32.45 27.15"/><polygon class="cls-7" points="71.72 94.25 71.72 92.32 77.17 89.23 77.15 91.18 71.72 94.25"/><polygon class="cls-8" points="72.22 93.36 72.2 92.62 76.72 90.03 76.69 90.8 72.22 93.36"/><polygon class="cls-9" points="72.22 93.03 76.42 90.64 76.7 90.81 72.22 93.36 72.22 93.03"/><polygon class="cls-10" points="58.29 58.53 58.29 48.71 79.07 36.67 79.04 46.7 58.29 58.53"/><polygon class="cls-7" points="59.95 76.79 59.95 61.57 78.29 50.93 78.26 66.37 59.95 76.79"/><polygon class="cls-8" points="70.86 80.18 70.86 72.7 76.96 69.13 76.95 76.71 70.86 80.18"/><polygon class="cls-3" points="71.43 79.37 71.43 74.58 73.31 73.45 76.38 76.56 71.43 79.37"/><polygon class="cls-11" points="35.8 27.49 55.17 45.34 78.98 31.75 59.66 13.88 35.8 27.49"/><path class="cls-12" d="M35.8,27.49A71.81,71.81,0,0,0,79,31.75L59.66,13.88Z"/><path class="cls-13" d="M35.8,27.64a.14.14,0,0,1-.12-.08.13.13,0,0,1,0-.19L59.59,13.75a.15.15,0,0,1,.2.06.13.13,0,0,1,0,.19L35.88,27.62Z"/><path class="cls-13" d="M37.56,29.26a.15.15,0,0,1-.13-.07.15.15,0,0,1,.06-.2L61.35,15.38a.15.15,0,0,1,.2,0,.15.15,0,0,1-.06.2L37.63,29.24A.1.1,0,0,1,37.56,29.26Z"/><path class="cls-13" d="M39.31,30.89a.14.14,0,0,1-.12-.08.14.14,0,0,1,.05-.19L63.1,17a.15.15,0,0,1,.2.06.15.15,0,0,1,0,.2L39.39,30.87Z"/><path class="cls-13" d="M41.07,32.51a.15.15,0,0,1-.13-.07.15.15,0,0,1,.06-.2L64.86,18.63a.15.15,0,0,1,.2.05.15.15,0,0,1-.06.2L41.14,32.5Z"/><path class="cls-13" d="M42.82,34.14a.15.15,0,0,1-.12-.07.15.15,0,0,1,0-.2L66.61,20.26a.15.15,0,1,1,.15.25L42.9,34.12Z"/><path class="cls-13" d="M44.58,35.77a.16.16,0,0,1-.13-.08.14.14,0,0,1,.06-.19L68.37,21.88a.15.15,0,0,1,.2.06.14.14,0,0,1-.06.19L44.65,35.75Z"/><path class="cls-13" d="M46.34,37.39a.15.15,0,0,1-.08-.27L70.12,23.51a.15.15,0,1,1,.15.25L46.41,37.37A.11.11,0,0,1,46.34,37.39Z"/><path class="cls-13" d="M48.09,39a.16.16,0,0,1-.13-.08.15.15,0,0,1,.06-.19L71.88,25.13a.15.15,0,0,1,.2.06.15.15,0,0,1-.06.2L48.16,39Z"/><path class="cls-13" d="M49.85,40.64a.15.15,0,0,1-.08-.27L73.64,26.76a.14.14,0,0,1,.19,0,.15.15,0,0,1,0,.2L49.92,40.63Z"/><path class="cls-13" d="M51.6,42.27a.17.17,0,0,1-.13-.07.15.15,0,0,1,.06-.2L75.39,28.39a.15.15,0,0,1,.2.05.15.15,0,0,1-.06.2L51.67,42.25Z"/><path class="cls-13" d="M53.36,43.9a.16.16,0,0,1-.13-.08.14.14,0,0,1,.05-.19L77.14,30a.15.15,0,0,1,.2.06.13.13,0,0,1,0,.19L53.43,43.88Z"/><path class="cls-13" d="M55.11,45.52a.15.15,0,0,1-.13-.07.16.16,0,0,1,.06-.2L78.9,31.64a.15.15,0,0,1,.2.05.15.15,0,0,1-.06.2L55.18,45.5A.08.08,0,0,1,55.11,45.52Z"/><path class="cls-13" d="M55.11,45.52a.14.14,0,0,1-.1,0L35.71,27.6a.15.15,0,0,1,0-.21.14.14,0,0,1,.2,0L55.21,45.27a.15.15,0,0,1,0,.21A.15.15,0,0,1,55.11,45.52Z"/><path class="cls-13" d="M57.27,44.28a.11.11,0,0,1-.09,0Q47.52,35.3,37.87,26.35a.14.14,0,0,1,0-.2.15.15,0,0,1,.21,0L57.37,44a.14.14,0,0,1,0,.2A.16.16,0,0,1,57.27,44.28Z"/><path class="cls-13" d="M59.44,43a.18.18,0,0,1-.1,0L40,25.11a.14.14,0,0,1,0-.2.15.15,0,0,1,.21,0L59.54,42.78a.15.15,0,0,1,0,.21A.12.12,0,0,1,59.44,43Z"/><path class="cls-13" d="M61.6,41.79a.19.19,0,0,1-.1,0L42.2,23.87a.15.15,0,0,1,0-.21.14.14,0,0,1,.2,0L61.7,41.54a.15.15,0,0,1,0,.21A.15.15,0,0,1,61.6,41.79Z"/><path class="cls-13" d="M63.77,40.55a.12.12,0,0,1-.1,0L44.36,22.63a.15.15,0,1,1,.2-.22L63.86,40.3a.13.13,0,0,1,0,.2A.16.16,0,0,1,63.77,40.55Z"/><path class="cls-13" d="M65.93,39.31a.18.18,0,0,1-.1,0L46.52,21.38a.15.15,0,0,1,.2-.21L66,39.06a.13.13,0,0,1,0,.2A.12.12,0,0,1,65.93,39.31Z"/><path class="cls-13" d="M68.09,38.06a.19.19,0,0,1-.1,0L48.69,20.14a.15.15,0,0,1,0-.21.14.14,0,0,1,.2,0L68.19,37.81a.15.15,0,0,1,0,.21A.15.15,0,0,1,68.09,38.06Z"/><path class="cls-13" d="M70.26,36.82a.12.12,0,0,1-.1,0L50.85,18.9a.15.15,0,0,1,0-.21.17.17,0,0,1,.21,0l19.3,17.89a.13.13,0,0,1,0,.2A.16.16,0,0,1,70.26,36.82Z"/><path class="cls-13" d="M72.42,35.58a.18.18,0,0,1-.1,0L53,17.65a.15.15,0,0,1,.2-.21L72.52,35.33a.13.13,0,0,1,0,.2A.12.12,0,0,1,72.42,35.58Z"/><path class="cls-13" d="M74.58,34.33a.19.19,0,0,1-.1,0L55.18,16.41a.14.14,0,0,1,0-.2.13.13,0,0,1,.2,0L74.68,34.08a.15.15,0,0,1,0,.21A.15.15,0,0,1,74.58,34.33Z"/><path class="cls-13" d="M76.75,33.09a.13.13,0,0,1-.1,0L57.34,15.17a.15.15,0,1,1,.2-.21l19.3,17.88a.15.15,0,0,1,0,.21A.14.14,0,0,1,76.75,33.09Z"/><path class="cls-13" d="M78.91,31.85a.13.13,0,0,1-.1,0L59.5,13.93a.15.15,0,0,1,0-.21.14.14,0,0,1,.2,0L79,31.6a.14.14,0,0,1,0,.2A.16.16,0,0,1,78.91,31.85Z"/><path class="cls-14" d="M35.9,46.54,51,55.18a2.11,2.11,0,0,1,.93,1.67V75.22c0,.62-.42.9-.93.6L35.9,67.18A2.12,2.12,0,0,1,35,65.51V47.14C35,46.51,35.39,46.24,35.9,46.54Z"/><path class="cls-15" d="M36.46,47.63l14,8a2,2,0,0,1,.86,1.55v17c0,.58-.39.83-.86.55l-14-8a2,2,0,0,1-.86-1.55v-17C35.6,47.6,36,47.35,36.46,47.63Z"/><path class="cls-13" d="M48,58.06a7.36,7.36,0,0,0-1.75-2.45A16.47,16.47,0,0,0,44,54.11l-.68-.4L39.4,51.45V66.28l2.46,1.4V62.09l1.6.92.56.32a12.74,12.74,0,0,0,2,.93,2.2,2.2,0,0,0,1.27,0,1.69,1.69,0,0,0,1-.87,4.16,4.16,0,0,0,.41-2.06A7.78,7.78,0,0,0,48,58.06Zm-2.1,2.88a.82.82,0,0,1-.77.28A3.63,3.63,0,0,1,44,60.79c-.24-.12-.51-.27-.82-.45l-1.34-.77v-4.2l1.18.68c.38.22.71.41,1,.58a9.44,9.44,0,0,1,.79.53,3.85,3.85,0,0,1,1,1.22,3.37,3.37,0,0,1,.39,1.56A1.59,1.59,0,0,1,45.91,60.94Z"/><polygon class="cls-7" points="75.15 76.93 74.61 76.37 75.33 75.96 75.88 76.52 75.15 76.93"/><polygon class="cls-7" points="74.49 76.26 73.95 75.7 74.67 75.29 75.22 75.85 74.49 76.26"/><polygon class="cls-7" points="73.83 75.59 73.29 75.03 74.01 74.62 74.56 75.18 73.83 75.59"/><polygon class="cls-7" points="73.17 74.92 72.63 74.36 73.35 73.95 73.9 74.51 73.17 74.92"/><polygon class="cls-7" points="74.29 77.42 73.74 76.86 74.46 76.45 75.02 77.01 74.29 77.42"/><polygon class="cls-7" points="73.42 77.91 72.88 77.36 73.6 76.94 74.15 77.5 73.42 77.91"/><polygon class="cls-7" points="72.56 78.4 72.01 77.85 72.73 77.44 73.29 77.99 72.56 78.4"/><polygon class="cls-7" points="71.69 78.89 71.43 78.63 71.43 78.17 71.87 77.93 72.42 78.48 71.69 78.89"/><polygon class="cls-7" points="73.63 76.75 73.08 76.19 73.81 75.78 74.36 76.34 73.63 76.75"/><polygon class="cls-7" points="72.76 77.24 72.22 76.69 72.94 76.27 73.49 76.83 72.76 77.24"/><polygon class="cls-7" points="71.9 77.73 71.43 77.26 71.43 77.13 72.07 76.77 72.63 77.32 71.9 77.73"/><polygon class="cls-7" points="71.43 77.48 71.76 77.81 71.43 78 71.43 77.48"/><polygon class="cls-7" points="72.97 76.08 72.42 75.53 73.14 75.11 73.7 75.67 72.97 76.08"/><polygon class="cls-7" points="72.1 76.57 71.56 76.02 72.28 75.6 72.83 76.16 72.1 76.57"/><polygon class="cls-7" points="71.43 76.11 71.97 76.65 71.43 76.95 71.43 76.11"/><polygon class="cls-7" points="72.31 75.41 71.76 74.86 72.48 74.44 73.04 75 72.31 75.41"/><polygon class="cls-7" points="71.44 75.9 71.43 75.89 71.43 75.04 71.62 74.93 72.17 75.49 71.44 75.9"/><polygon class="cls-16" points="73.31 73.45 76.38 76.56 76.38 70.1 73.31 73.45"/><polygon class="cls-17" points="76.38 70.1 71.43 73.03 71.43 74.58 73.31 73.45 76.38 70.1"/><polygon class="cls-3" points="59.95 76.79 60.65 74.02 75.39 64.81 78.26 66.27 78.26 66.37 59.95 76.79"/><polygon class="cls-16" points="60.4 75.03 60.4 61.27 76.96 51.66 76.94 65.61 60.4 75.03"/><polygon class="cls-18" points="61.45 73.55 61.45 61.54 75.91 53.14 75.89 65.34 61.45 73.55"/><polygon class="cls-19" points="71.2 85.52 71.2 83.59 76.7 80.53 77.17 80.81 76.6 82.52 71.74 85.83 71.2 85.52"/><polygon class="cls-20" points="71.72 85.83 71.72 83.9 77.17 80.81 77.15 82.76 71.72 85.83"/><polygon class="cls-21" points="72.22 84.94 72.2 84.2 76.72 81.61 76.69 82.38 72.22 84.94"/><polygon class="cls-19" points="72.22 84.61 76.42 82.22 76.7 82.39 72.22 84.94 72.22 84.61"/><polygon class="cls-22" points="58.79 57.65 58.79 48.91 78.56 37.55 78.55 46.48 58.79 57.65"/><polygon class="cls-23" points="59.6 51.44 59.82 51.32 59.82 49.13 59.6 49.26 59.6 51.44"/><path class="cls-23" d="M60.65,49a.55.55,0,0,0-.18.16.67.67,0,0,0-.1.21v-.2l-.22.12v1.87l.22-.13V49.56a.38.38,0,0,1,.05-.19.23.23,0,0,1,.11-.11s.08,0,.1,0,0,.06,0,.12v1.48l.22-.12V49.25a.37.37,0,0,0-.07-.27S60.72,48.94,60.65,49Z"/><path class="cls-23" d="M61.61,49.35l-.12-.06a.28.28,0,0,1-.14-.27.48.48,0,0,1,0-.18.19.19,0,0,1,.1-.1s.07,0,.09,0a.57.57,0,0,1,0,.22v.13l.21-.11v-.09q0-.42-.15-.45a.28.28,0,0,0-.18.05.69.69,0,0,0-.26.25.76.76,0,0,0-.09.38.42.42,0,0,0,.21.4l.06,0,.05,0a.31.31,0,0,1,.16.29.49.49,0,0,1,0,.2.21.21,0,0,1-.1.11c-.08,0-.12,0-.12-.25v-.14l-.22.12v.14a.5.5,0,0,0,.09.36c.06.05.15.05.26,0a.69.69,0,0,0,.35-.64A.46.46,0,0,0,61.61,49.35Z"/><path class="cls-23" d="M62.32,49.64V48.28l.17-.09V48l-.17.1v-.34l-.22.12v.34L62,48.3v.19l.15-.08v1.38c0,.1,0,.17,0,.19s.1,0,.2,0l.15-.08v-.21a.41.41,0,0,1-.15.07S62.32,49.69,62.32,49.64Z"/><path class="cls-23" d="M63,47.72a.8.8,0,0,0-.1.23v-.21l-.22.12v1.86l.22-.12V48.09a.61.61,0,0,1,.28-.31v-.21A.52.52,0,0,0,63,47.72Z"/><path class="cls-23" d="M63.91,48.64a.52.52,0,0,1,0,.18.3.3,0,0,1-.12.13c-.09,0-.14,0-.14-.14V47.36l-.22.12V49c0,.14,0,.23.08.26a.17.17,0,0,0,.18,0,.52.52,0,0,0,.17-.16.5.5,0,0,0,.08-.2v.19l.23-.12V47.07l-.23.13Z"/><path class="cls-23" d="M65,46.66s-.13,0-.25,0a.69.69,0,0,0-.25.26.77.77,0,0,0-.07.2,1.81,1.81,0,0,0,0,.38v.62a2.44,2.44,0,0,0,0,.29c0,.22.14.27.33.17a.7.7,0,0,0,.27-.27,1.39,1.39,0,0,0,.08-.54v-.12l-.21.12V48a.68.68,0,0,1,0,.3.21.21,0,0,1-.1.11s-.08,0-.1,0a.76.76,0,0,1,0-.25v-.8a1.41,1.41,0,0,1,0-.22.27.27,0,0,1,.13-.19.08.08,0,0,1,.1,0,.88.88,0,0,1,0,.22v.17l.21-.12V46.9A.42.42,0,0,0,65,46.66Z"/><path class="cls-23" d="M65.65,47.8V46.44l.18-.09v-.19l-.18.09v-.34l-.22.13v.33l-.14.09v.18l.14-.08v1.38c0,.11,0,.18,0,.2s.1,0,.2,0l.15-.09v-.2c-.08,0-.13.07-.15.06S65.65,47.85,65.65,47.8Z"/><polygon class="cls-23" points="66.05 45.84 66.27 45.72 66.27 45.49 66.05 45.61 66.05 45.84"/><polygon class="cls-23" points="66.05 47.88 66.27 47.76 66.27 45.89 66.05 46.02 66.05 47.88"/><path class="cls-23" d="M66.92,45.51h0a.55.55,0,0,0-.17.14,1,1,0,0,0-.18.66V47a1.59,1.59,0,0,0,0,.37c.05.14.16.16.32.07h0a.59.59,0,0,0,.27-.27,1.29,1.29,0,0,0,.09-.56v-.66a1.56,1.56,0,0,0,0-.36C67.19,45.45,67.09,45.43,66.92,45.51Zm.14,1.27a1,1,0,0,1,0,.27.19.19,0,0,1-.11.16h0s0,0-.07,0-.06-.11-.06-.29v-.78a1.06,1.06,0,0,1,0-.27.22.22,0,0,1,.11-.15h0s0,0,.07,0,.07.11.07.29Z"/><path class="cls-23" d="M68.24,44.89s-.1,0-.18,0a.58.58,0,0,0-.18.17.69.69,0,0,0-.09.2v-.19l-.22.12V47l.22-.12V45.46a.34.34,0,0,1,0-.18.32.32,0,0,1,.11-.12s.08,0,.11,0a.17.17,0,0,1,0,.12v1.49l.22-.13V45.15A.38.38,0,0,0,68.24,44.89Z"/><path class="cls-23" d="M60,52.18l.16-.09v2.19l-.22.12V52.56a.67.67,0,0,1-.11.14l-.13.1v-.18a1.53,1.53,0,0,0,.18-.18A1.23,1.23,0,0,0,60,52.18Z"/><path class="cls-23" d="M63.2,51.09a1.65,1.65,0,0,1,.1-.68.41.41,0,0,1,.07-.11.6.6,0,0,1,.19-.16c.21-.12.31,0,.31.43a2,2,0,0,1-.13.67l-.12.31a3.4,3.4,0,0,0-.19.68l.41-.23v.19l-.62.35v-.12a3.11,3.11,0,0,1,.21-.85,1.38,1.38,0,0,0,.07-.19,1.54,1.54,0,0,0,.08-.23.7.7,0,0,0,.06-.23,1.23,1.23,0,0,0,0-.27,1.09,1.09,0,0,0,0-.2.19.19,0,0,0,0-.09h-.06l0,0a.72.72,0,0,0-.08.41v.29l-.22.12Z"/><path class="cls-23" d="M67.35,49.06c.13,0,.2.14.2.44a1.31,1.31,0,0,1-.09.52.69.69,0,0,1-.29.32c-.13.07-.23.08-.28,0a.7.7,0,0,1-.08-.42v-.1l.21-.12v.1a.88.88,0,0,0,0,.3s.06,0,.12,0A.26.26,0,0,0,67.3,50a1.5,1.5,0,0,0,0-.35.9.9,0,0,0,0-.31s-.09,0-.16,0l-.06,0v-.21l.05,0a.25.25,0,0,0,.12-.1.63.63,0,0,0,.09-.4h0a.55.55,0,0,0,0-.26.09.09,0,0,0-.12,0,.31.31,0,0,0-.11.14,1.05,1.05,0,0,0,0,.3v.05l-.22.12v0a1.26,1.26,0,0,1,.08-.48.67.67,0,0,1,.28-.3c.13-.07.23-.08.29,0a.53.53,0,0,1,.09.37A.82.82,0,0,1,67.35,49.06Z"/><path class="cls-23" d="M71.11,47.48V45.91l-.23.13-.11.45-.31,1.38v.18l.31-.18.14-.08v.42l.2-.12v-.41l.15-.09v-.2Zm-.2.11-.14.08-.13.07.13-.64.14-.65Z"/><path class="cls-23" d="M74.37,44.81a.39.39,0,0,1,.19-.19h0a.13.13,0,0,1,.13,0c.08,0,.12.23.12.58a4.46,4.46,0,0,1,0,.51c0,.07,0,.13,0,.17a.58.58,0,0,1-.28.36c-.22.12-.33,0-.33-.23v-.25l.21-.12v.25a.23.23,0,0,0,0,.13s0,0,.09,0a.16.16,0,0,0,.08-.1.45.45,0,0,0,0-.18v-.65a.62.62,0,0,0,0-.18.06.06,0,0,0-.09,0,.34.34,0,0,0-.12.31l-.19.09V44.18l.59-.33v.23l-.39.22Z"/><polygon class="cls-10" points="60.45 56.71 60.45 51.87 62.7 50.65 62.68 55.45 60.45 56.71"/><polygon class="cls-10" points="64.17 54.62 64.17 49.78 66.42 48.55 66.4 53.36 64.17 54.62"/><polygon class="cls-10" points="67.89 52.53 67.89 47.69 70.14 46.46 70.12 51.27 67.89 52.53"/><polygon class="cls-10" points="71.61 50.44 71.61 45.6 73.86 44.37 73.84 49.18 71.61 50.44"/><polygon class="cls-10" points="75.33 48.35 75.33 43.51 77.58 42.28 77.56 47.09 75.33 48.35"/></svg>