<svg id="_1" data-name="1" xmlns="http://www.w3.org/2000/svg" viewBox="0 0 153.91 115.17"><defs><style>.cls-1{fill:#98c1e7;}.cls-1,.cls-2,.cls-3,.cls-4,.cls-6,.cls-7{fill-rule:evenodd;}.cls-2{fill:#fc0;}.cls-3{fill:#ededed;}.cls-4{fill:#8492a5;}.cls-5{fill:#3c3c3b;}.cls-6{fill:#9d9d9c;}.cls-7{fill:#fff;}</style></defs><title>parkingticket</title><polygon class="cls-1" points="14.08 68.52 54.47 91.31 135.05 45.36 94.69 22.54 14.08 68.52"/><polygon class="cls-2" points="16.82 63.48 55.38 85.24 132.31 41.38 93.78 19.59 16.82 63.48"/><polygon class="cls-3" points="55.38 87.75 16.83 66 16.82 63.52 55.38 85.27 55.38 87.75"/><polygon class="cls-4" points="55.39 87.75 132.29 43.83 132.34 41.38 55.39 85.27 55.39 87.75"/><path class="cls-5" d="M91.35,28.45l.59.34a2.46,2.46,0,0,0,1.67.34l.22,0a6.15,6.15,0,0,0,1.69-.69l.15-.08a2.79,2.79,0,0,0,1.17-1c.13-.31-.08-.62-.64-1l-1.64-.95-.73.42-6.37,3.61,1.09.63Zm2.48-1.4,1-.57.38.23c.22.12.27.26.16.4a3,3,0,0,1-.78.58l-.14.07c-.23.13-.43.24-.61.32a2.32,2.32,0,0,1-.5.19.92.92,0,0,1-.72-.11L92.24,28Z"/><path class="cls-5" d="M91,31.44l1,.61,1.43-.63,1.15.67-1.09.82,1,.59L96.43,32l4.1-3.18L99.09,28l-2.66,1.13Zm7.45-2.22h0l-2,1.5-1.08.8L94.42,31l2-.89Z"/><path class="cls-5" d="M96.36,34.56l3.35-1.9.34.21c.22.14.32.26.29.36s-.2.24-.51.42c-1.64.93-2.48,1.42-2.51,1.47l1.09.63s.52-.34,1.43-.86a7.64,7.64,0,0,0,1.65-1.1.36.36,0,0,0,0-.58,1.78,1.78,0,0,0,.45.08,1.8,1.8,0,0,0,.52,0,4.36,4.36,0,0,0,1.12-.48,5.38,5.38,0,0,0,1-.65.62.62,0,0,0,.27-.56c0-.19-.25-.4-.62-.61l-1.8-1-.45.25-6.65,3.77Zm5.56-3.15.71-.4.37.21c.24.14.33.26.28.37a2.23,2.23,0,0,1-.66.48l0,0a5.28,5.28,0,0,1-.66.34l-.07,0a1.09,1.09,0,0,1-.46.1.8.8,0,0,1-.4-.12l-.43-.25Z"/><polygon class="cls-5" points="100.48 36.94 103.79 35.06 101.63 37.61 102.78 38.28 105.09 35.49 109.78 34.2 108.66 33.55 104.3 34.77 107.57 32.91 106.48 32.28 99.38 36.31 100.48 36.94"/><polygon class="cls-5" points="104.46 39.25 111.55 35.22 110.46 34.59 103.37 38.62 104.46 39.25"/><polygon class="cls-5" points="114.96 37.2 112.64 38.51 110.78 39.66 113.52 36.36 112.67 35.87 105.57 39.89 106.58 40.47 109.12 39.03 110.92 37.94 108.07 41.34 108.84 41.79 115.94 37.76 114.96 37.2"/><path class="cls-5" d="M118.63,39.23a2.92,2.92,0,0,0-1.75-.42,4.51,4.51,0,0,0-1.89.62l-3.08,1.75c-.73.41-1.15.8-1.25,1.14s.08.65.53.91a2.11,2.11,0,0,0,.88.27,2.21,2.21,0,0,0,.93-.1l-.53.49.49.28,3.88-2.2-1.5-.86-.79.44.55.32-1,.54a4,4,0,0,1-1.12.49,1,1,0,0,1-.73-.09c-.2-.11-.25-.25-.14-.39a3.67,3.67,0,0,1,.87-.61l3.08-1.75a3.47,3.47,0,0,1,1-.4.87.87,0,0,1,.64.1c.19.11.26.22.2.33a1.62,1.62,0,0,1-.58.45l-.75.42,1,.59.5-.28a4,4,0,0,0,1.11-.83C119.52,40,119.33,39.63,118.63,39.23Z"/><polygon class="cls-5" points="89.7 34.96 90.64 34.43 87.91 32.84 86.97 33.38 87.81 33.86 81.65 37.35 82.73 37.98 88.9 34.49 89.7 34.96"/><polygon class="cls-5" points="91.28 34.8 84.18 38.82 85.27 39.45 92.37 35.43 91.28 34.8"/><path class="cls-5" d="M92.35,40.18l-1.07-.62-1,.58a3.9,3.9,0,0,1-.92.41.89.89,0,0,1-.63-.07c-.17-.11-.22-.23-.12-.36a2.75,2.75,0,0,1,.72-.52l3.31-1.88a3.69,3.69,0,0,1,.87-.38.89.89,0,0,1,.63.08c.19.11.23.22.13.35a2.51,2.51,0,0,1-.69.5l-.9.51,1,.61,1-.55c1.25-.71,1.38-1.36.37-1.94a3.2,3.2,0,0,0-.89-.36,4.08,4.08,0,0,0-2.82.64l-3.09,1.75c-.66.38-1,.74-1.12,1.09s.13.68.65,1a2.91,2.91,0,0,0,1.66.39,4.49,4.49,0,0,0,1.89-.65Z"/><polygon class="cls-5" points="100.7 40.25 99.57 39.6 95.22 40.82 98.48 38.97 97.39 38.34 90.3 42.36 91.39 43 94.71 41.12 92.55 43.66 93.7 44.33 96.01 41.55 100.7 40.25"/><polygon class="cls-5" points="98.52 43.47 99.77 44.19 100.68 43.67 99.44 42.95 101.5 41.78 102.81 42.54 103.74 42.01 101.34 40.62 94.24 44.65 96.69 46.06 97.62 45.54 96.27 44.75 98.52 43.47"/><polygon class="cls-5" points="103.25 42.8 104.09 43.29 97.93 46.78 99.02 47.41 105.18 43.91 105.98 44.38 106.92 43.85 104.19 42.27 103.25 42.8"/><polygon class="cls-6" points="66.73 40.76 96.1 57.33 98.28 56.08 68.94 39.5 66.73 40.76"/><polygon class="cls-6" points="62.54 43.19 91.91 59.76 94.09 58.52 64.75 41.93 62.54 43.19"/><polygon class="cls-6" points="58.35 45.63 87.72 62.2 89.9 60.95 60.56 44.37 58.35 45.63"/><polygon class="cls-6" points="54.16 48.06 83.53 64.63 85.71 63.39 56.37 46.8 54.16 48.06"/><polygon class="cls-6" points="49.98 50.5 79.34 67.07 81.52 65.82 52.18 49.24 49.98 50.5"/><polygon class="cls-6" points="45.79 52.93 75.15 69.5 77.33 68.26 47.99 51.67 45.79 52.93"/><polygon class="cls-7" points="28.96 60.04 61.62 78.47 70.41 73.86 37.78 55.41 28.96 60.04"/><path class="cls-5" d="M40.5,62.91l2.76-1.56c.51-.29.79-.57.83-.84s-.16-.53-.62-.8a2.48,2.48,0,0,0-1.39-.36,3.38,3.38,0,0,0-1.46.46l-.12.07-2.66,1.51q-.8.45-.9.87c-.07.28.13.55.59.82a2.49,2.49,0,0,0,1.43.35,3.84,3.84,0,0,0,1.53-.51Zm-1.72-.17a.84.84,0,0,1-.5-.1c-.14-.08-.19-.17-.16-.27a1.52,1.52,0,0,1,.6-.46l1.78-1,1-.59a1.89,1.89,0,0,1,.73-.28.77.77,0,0,1,.38.08.9.9,0,0,1,.18.12c.15.14,0,.34-.42.58L40.5,61.89l-.92.52A2.38,2.38,0,0,1,38.78,62.74Z"/><path class="cls-5" d="M43.86,64.86l2.76-1.57c.51-.29.79-.57.83-.83s-.16-.54-.62-.8a2.49,2.49,0,0,0-1.39-.37,3.24,3.24,0,0,0-1.46.47l-.12.07-2.66,1.5q-.8.47-.9.87c-.07.28.13.56.59.83a2.47,2.47,0,0,0,1.43.34,3.55,3.55,0,0,0,1.53-.51Zm-1.73-.18a.8.8,0,0,1-.49-.09c-.14-.08-.19-.17-.16-.28s.23-.25.59-.46l1.79-1,1-.59a1.69,1.69,0,0,1,.73-.27.81.81,0,0,1,.38.07l.18.12c.14.15,0,.34-.42.58l-1.91,1.09-.92.52A2.09,2.09,0,0,1,42.13,64.68Z"/><path class="cls-5" d="M48.23,65.74a4.53,4.53,0,0,0,1.52-.54,2.05,2.05,0,0,0,.88-.8.47.47,0,0,0,0-.4.94.94,0,0,0-.39-.37,2.49,2.49,0,0,0-.54-.24,2.15,2.15,0,0,0-1.05,0A5.69,5.69,0,0,0,47,64l-.36.21.86.49.73-.42a4,4,0,0,1,.47-.23.84.84,0,0,1,.75,0c.21.12.07.33-.43.61a4,4,0,0,1-1.43.51l-.88.11-.65.1a11.41,11.41,0,0,0-1.48.29,4.7,4.7,0,0,0-1,.42l-.34.19,2.19,1.28.7-.4-1.35-.78a9.12,9.12,0,0,1,2-.41C47.2,65.91,47.7,65.83,48.23,65.74Z"/><path class="cls-5" d="M50.54,68.54l-.19-.11-.26-.15.26-.15L54.16,66l-.95-.55-2.86.85L47.79,67l-.65.37,1.44.84-1,.58.8.46,1-.58.46.26.52-.3Zm-1.25-.72-.75-.43,1.81-.6,1.81-.59-1.81,1Z"/><path class="cls-5" d="M55.2,69c.17-.25.08-.47-.26-.67a1.92,1.92,0,0,0-.44-.17,1.23,1.23,0,0,0-.42,0l1.17-.66,1.35.78.79-.45-2.17-1.26-3,1.68.75.48a.88.88,0,0,1,.91-.12c.13.07.17.15.11.23a1.28,1.28,0,0,1-.41.31L52.14,70c-.38.22-.67.27-.87.16h0A.41.41,0,0,1,51.1,70c0-.09.07-.22.34-.37l.64-.36-.84-.48-.73.41c-.79.45-.81.9,0,1.35a2.1,2.1,0,0,0,1.31.32,2.86,2.86,0,0,0,.78-.21A14.57,14.57,0,0,0,54,70,3.94,3.94,0,0,0,55.2,69Z"/><path class="cls-5" d="M57,72.07a2.81,2.81,0,0,0,1.09-.87c.12-.25,0-.47-.33-.67a1.72,1.72,0,0,0-1-.26l.83-.47a3,3,0,0,1,.8-.37.67.67,0,0,1,.5.07c.16.09.2.19.12.28a2.82,2.82,0,0,1-.64.43l-.12.07.84.48.3-.17c.53-.3.81-.57.85-.8s-.13-.46-.53-.69a2.68,2.68,0,0,0-.91-.34,3.32,3.32,0,0,0-2.17.56l-1,.58-1.36.77a3.82,3.82,0,0,0-1,.72c-.28.36-.12.72.48,1.07a2.34,2.34,0,0,0,1.42.35l.43-.09a4.48,4.48,0,0,0,1.08-.47Zm-1.34-.23-.06,0a1.84,1.84,0,0,1-.6.24.65.65,0,0,1-.48-.1c-.16-.09-.21-.19-.14-.3a1.57,1.57,0,0,1,.52-.41l.7-.39.35-.2a.69.69,0,0,1,.36,0,.94.94,0,0,1,.42.13c.13.08.16.17.09.28a2,2,0,0,1-.61.44Z"/><path class="cls-5" d="M63.28,71.32a1,1,0,0,0-.39-.36,3.19,3.19,0,0,0-.54-.25,2.28,2.28,0,0,0-1.05,0,5.51,5.51,0,0,0-1.66.71l-.36.2.85.49.74-.41c.18-.1.33-.18.47-.24a.88.88,0,0,1,.75,0c.21.13.07.33-.43.61a3.64,3.64,0,0,1-1.43.51l-.88.12-.65.09c-.59.09-1.08.19-1.48.29a4.7,4.7,0,0,0-1,.42l-.34.2L58,74.87l.7-.39-1.35-.78a9.66,9.66,0,0,1,2-.42c.45,0,1-.12,1.48-.22a4.4,4.4,0,0,0,1.51-.54,2,2,0,0,0,.89-.79A.49.49,0,0,0,63.28,71.32Z"/></svg>