<svg id="Layer_1" data-name="Layer 1" xmlns="http://www.w3.org/2000/svg" viewBox="0 0 120.74 123.02"><defs><style>.cls-1{fill:#fcd4ca;}.cls-2{fill:#bbeadb;}.cls-3{fill:#110239;}.cls-4{fill:#0186cb;}.cls-5{fill:#0056a3;opacity:0.65;}.cls-6{fill:#e8a393;}.cls-7{fill:#ffd066;}.cls-8{fill:#feac1a;}.cls-9{fill:#83ccc3;}</style></defs><title>incasso</title><path class="cls-1" d="M68.22,54l.14.05a3.49,3.49,0,0,0,1.07.12,20.13,20.13,0,0,0,2.06-.35,6.32,6.32,0,0,1,.75-.06,17,17,0,0,1,2.39.31c.84.18,1,.21,1.77.43.39.11.94.46,1.32.6.58.21.74,1,.33,1a.7.7,0,0,1-.59-.15,12.3,12.3,0,0,0-1.35-.61,4.34,4.34,0,0,1,1.35.61c.27.22.61.29.77.65,0,.11.18.16.21.31a.47.47,0,0,1-.08.43.49.49,0,0,1-.56.08,5.55,5.55,0,0,1-1.28-.72,8.23,8.23,0,0,0-1-.83,8.16,8.16,0,0,1,1.67,1.32,10.19,10.19,0,0,0,.8.64.61.61,0,0,1,0,1c-.36.23-1-.18-1.23-.41s-.82-.62-1.12-.93a5.51,5.51,0,0,0-.43-.41,8.69,8.69,0,0,0-.83-.67A19,19,0,0,1,76.11,58c.24.28.56.69.33,1-.41.62-1,.06-1.29-.19s-.78-.59-1.14-.94a8.85,8.85,0,0,0-1.84-1.38c-.33-.19-.73-.11-1.08-.23.17.19.46.2.65.37a5.61,5.61,0,0,0,.7.57,1.52,1.52,0,0,1,.67.83c.09.35.13.71-.3.8-.61.13-1.09-.32-1.53-.67a3.17,3.17,0,0,0-1.62-.93,6.77,6.77,0,0,0-.78,0,11.59,11.59,0,0,1-2,0,1.59,1.59,0,0,1-1.14-.77,5.11,5.11,0,0,1-.54-1.07c0-.12-.43-1.21-.54-1.18A21,21,0,0,0,66.86,53c.34-.16.48.16.66.38A2,2,0,0,0,68.22,54Z"/><path class="cls-2" d="M68.26,52.76l-2.68,4.7s-12.36-5.3-15-7.72-5.23-8.53-6.07-14.63C44,31.55,48,31.27,48,31.27c2.28,3.63,6.73,13.25,7.23,14S68.26,52.76,68.26,52.76Z"/><path class="cls-3" d="M32.74,104.54a14.08,14.08,0,0,0-.72,3.72c0,1.62.11,3.34.6,3.75,1,.81,13.56.92,14.58-.24s.34-3-2.32-3.69c-2.85-.7-4.21.12-6-.57s-.4-3.21-.4-3.21Z"/><path class="cls-3" d="M20.51,111.38a12,12,0,0,0-3.14-.49c-.77,0-2,0-2.57-.61a1.85,1.85,0,0,1-.13-2.1c.05-.09.66-1.2.77-1.15l-5-2.15s-3.92,4.67-3.57,5.9A13.35,13.35,0,0,0,9,112.94a10.15,10.15,0,0,0,6.33,2.68c3.37.19,6.75.13,7.29-.42C23.69,114.11,23.12,112.19,20.51,111.38Z"/><path class="cls-4" d="M23.12,52.27S16.81,56.12,17.8,63.7,20.93,81,20.41,83s-11.69,22.4-11.69,22.4l6.28,3.5s13.25-21.5,13.91-23.81.93-16,.93-16S37.62,82.13,38,83.94s-6.22,21.44-6.22,21.44l6.68,1.22S47.55,86.45,47,83.07c-.33-2.12-8.25-22.5-8.25-22.5Z"/><path class="cls-5" d="M37.93,83.61c.18-.34-1.81-9-2.7-10.34-.61-.9-2.89-5.09-3.59-6.38-.86-1.6.84-6.13,1.06-8a3.2,3.2,0,0,1-.57-.32C31.52,62.19,29.84,69,29.84,69c1.35,2.48,7.23,12.2,8.09,14.6h0v0Z"/><path class="cls-1" d="M44.15,22.76S41.77,28,39.89,29a6.15,6.15,0,0,0,7.18,2.55s-.19-2,1.5-6.46C48.57,25.07,45.29,24.16,44.15,22.76Z"/><path class="cls-6" d="M47.46,28.06l.13,0a28.45,28.45,0,0,1,1-3s-3.28-.91-4.42-2.31c0,0-2.38,5.21-4.26,6.22a6.24,6.24,0,0,0,2.9,2.43A4.75,4.75,0,0,1,47.46,28.06Z"/><path class="cls-1" d="M51.46,12.88s3.37,1.44,3.28,3a9.17,9.17,0,0,1-.17,2.3,6.79,6.79,0,0,0-.29,3c.18,1.26.13,1.88-1.18,1.55,0,0-.43-.22-.39.31s.19,3.63-2.45,3.74-6.68-3.91-6.47-5.6.69-5.61,2.53-7.45A4.57,4.57,0,0,1,51.46,12.88Z"/><path class="cls-3" d="M47.59,11.65s3.76,7.13,9.35,3.91a6.21,6.21,0,0,0-2.7-4.83C51.54,9,48,10.3,47.59,11.65Z"/><path class="cls-3" d="M52.83,22.73c-3.53-1-4-2.5-4-5.39s.92-3.11.92-3.11C51.89,13.5,52,12.45,52,12.45c1.59-4.26-8-4.8-8.18-1.87s.23,1.88-2.05,4.08a3.67,3.67,0,0,0-.21,5.5c1,1.15-.94,1-1.05,3-.08,1.47.79,2.1,2.12,2.55.23.07,1-1.9,1.4-2.63a12.18,12.18,0,0,0,2.64,3.51c2.35,1.79,5.07,1.51,5.79,0A8.36,8.36,0,0,0,52.83,22.73Z"/><circle class="cls-7" cx="78.64" cy="84.72" r="29.25" transform="translate(-12.25 156.14) rotate(-85.29)"/><circle class="cls-8" cx="78.64" cy="84.72" r="23.87"/><path class="cls-7" d="M75.8,72.43c4.79-1.48,9.81-1.17,11.67,3.48L79.74,79c-.75-1.74-2.7-1.39-3.83-.94-.71.28-3,1.2-2.44,2.62,1.27,3.18,14.21-5.83,17.81,3.16,2.16,5.4-1.26,9.09-6.3,11.54l2.63,5.6-4.72,1.89-2-5.89c-5,1.43-10.39,1-12.33-3.89L76.28,90l.06.17c.9,2.12,3.45,1.58,4.66,1.09s3.44-1.47,2.82-3C82.5,84.93,69.44,93.65,66,85c-2-5,1.11-8.5,5.76-10.84l-2.61-5.65,4.73-1.89Z"/><path class="cls-1" d="M62.93,57.71a3.55,3.55,0,0,0,.54.21,6.2,6.2,0,0,0,1,.26c.31,0,.64,0,1,0a6.85,6.85,0,0,0,1.43-.12,18.31,18.31,0,0,1,2.94-.53h.21a10.07,10.07,0,0,1,3.65.61c.55.21,1.47.47,1.39,1.22,0,.34-.3.4-.59.38a5.27,5.27,0,0,1-1.67-.38c-.6-.23-1.71-.81-1.71-.81a8.82,8.82,0,0,1,1.5.68c.29.2.5.3.73.45s.78.42.85.8.07.62-.3.77a2.53,2.53,0,0,1-1.67-.45c-.36-.23-2-1.29-2.51-1.52a19.21,19.21,0,0,1,2.12,1.37,2.63,2.63,0,0,1,.75.7.56.56,0,0,1-.3.87,2.51,2.51,0,0,1-1.09-.15,6.75,6.75,0,0,1-1.75-.9,7.37,7.37,0,0,0-1.55-1,5.57,5.57,0,0,1,1.2.73A8.89,8.89,0,0,1,70.42,62c.16.25.06.94-.51.93a2.61,2.61,0,0,1-.93-.24c-.34-.16-.68-.33-1-.51-.57-.31-.89-.77-1.58-.8a3.4,3.4,0,0,0-1.5.32,5.33,5.33,0,0,1-1,.38l-.52.08a3.7,3.7,0,0,1-3-1c-.25-.23-.42-.51-.64-.75s-.74-.57-.75-.82.49-.64.61-.77a9.4,9.4,0,0,0,.7-.86,5.25,5.25,0,0,1,.89-1c.16-.12.15-.12.35,0a4,4,0,0,1,.44.17C62.31,57.27,62.59,57.53,62.93,57.71Z"/><path class="cls-2" d="M47.17,30.1s-4.62,2.86-6-2.33c0,0-3.92.2-9,7.09S25,45.17,19.75,53.66c.77.85,9.47,10,19.76,7.62,0,0,1-2.25,1.47-3.3,1.93-4.54,7.13-16.93,7.73-20.6C49.53,32.26,47.17,30.1,47.17,30.1Z"/><path class="cls-9" d="M44.1,43.79c.48-2.37-.91-15-5.25-11.89-2.45,1.75-3,6-2.21,9.92a90.53,90.53,0,0,0,4.47,15.9c1-2.28,2.73-6.27,4.24-10.13A3.9,3.9,0,0,1,44.1,43.79Z"/><path class="cls-2" d="M63.64,57.3l-2.68,5s-15.55-6.21-18.13-8.59S34,32.52,40.11,30.54s7.63,17.67,9,18.88S63.64,57.3,63.64,57.3Z"/></svg>