<svg id="_1" data-name="1" xmlns="http://www.w3.org/2000/svg" viewBox="0 0 69.96 117.1"><defs><style>.cls-1{fill:#98c1e7;}.cls-1,.cls-2,.cls-3,.cls-4{fill-rule:evenodd;}.cls-2{fill:#8492a5;}.cls-3,.cls-5{fill:#fff;}.cls-4{fill:#008bd2;}</style></defs><title>parking</title><path class="cls-1" d="M37.17,78.64c-14.64,0-26.51,6.29-26.51,14.06s11.87,14,26.51,14,26.52-6.29,26.52-14S51.81,78.64,37.17,78.64Z"/><path class="cls-2" d="M9.2,32.5,57.71,4.79a2,2,0,0,1,2-.2h0l1.94,1.1-.94,2.13v58a6.84,6.84,0,0,1-3,5.38L10.08,98.43l-.92,1.82L7.25,99.16l-.2-.11H7A2.39,2.39,0,0,1,6.19,97V37.88A6.81,6.81,0,0,1,9.2,32.5Z"/><path class="cls-3" d="M11.09,33.58,59.6,5.86c1.66-.94,3-.07,3,1.95V66.92a6.81,6.81,0,0,1-3,5.38L11.09,100c-1.65.94-3,.07-3-2V39A6.8,6.8,0,0,1,11.09,33.58Z"/><path class="cls-4" d="M12.89,35,57.8,9.36c1.53-.87,2.78-.06,2.78,1.8V65.88a6.32,6.32,0,0,1-2.78,5L12.89,96.51c-1.53.88-2.78.07-2.78-1.8V40A6.32,6.32,0,0,1,12.89,35Z"/><path class="cls-5" d="M50.06,26.07a5.51,5.51,0,0,0-5.64-1.44A38.44,38.44,0,0,0,37.22,28c-.69.38-1.42.79-2.2,1.24L22.35,36.52V84.21l7.9-4.51v-18l5.15-2.94,1.82-1.06a55.12,55.12,0,0,0,6.38-4.32,24.13,24.13,0,0,0,4.09-4.59A26.75,26.75,0,0,0,51,42.19a24.49,24.49,0,0,0,1.31-8.13C52.33,30.27,51.57,27.6,50.06,26.07Zm-6.77,17a12.45,12.45,0,0,1-2.47,3.76,20.46,20.46,0,0,1-3.6,2.73c-.78.49-1.67,1-2.65,1.58L30.25,53.6V40.08l3.82-2.19q1.83-1.05,3.15-1.74A20.37,20.37,0,0,1,39.75,35a3.16,3.16,0,0,1,3.17.3q1.26,1,1.26,3.57A10.77,10.77,0,0,1,43.29,43.06Z"/></svg>